M48
;GenerationSoftware,Autodesk,EAGLE,9.6.2*%
;CreationDate,2020-09-17T05:33:54Z*%
FMAT,2
ICI,OFF
METRIC,TZ,000.000
T6C0.508
T5C0.813
T4C0.850
T3C1.016
T2C2.997
T1C3.300
%
G90
M71
T1
X66040Y44450
X3810Y44450
X3810Y3810
X66040Y3810
T2
X8160Y32130
X11160Y36830
X5160Y36830
T3
X58420Y2540
X55880Y2540
X53340Y2540
X50800Y2540
X48260Y2540
X27940Y45720
X30480Y45720
X33020Y45720
X35560Y45720
X38100Y45720
X40640Y45720
X43180Y45720
X45720Y45720
X29210Y2540
X48260Y45720
X50800Y45720
X53340Y45720
X55880Y45720
X58420Y45720
X41910Y5080
X44450Y5080
X60960Y45720
X60960Y43180
X58420Y43180
X55880Y43180
X53340Y43180
X50800Y43180
X48260Y43180
X45720Y43180
X43180Y43180
X40640Y43180
X38100Y43180
X35560Y43180
X33020Y43180
X30480Y43180
X27940Y43180
X60960Y2540
X48260Y5080
X50800Y5080
X53340Y5080
X55880Y5080
X58420Y5080
X60960Y5080
X26670Y2540
X31750Y2540
X34290Y2540
X36830Y2540
X39370Y2540
X41910Y2540
X44450Y2540
X26670Y5080
X29210Y5080
X31750Y5080
X34290Y5080
X36830Y5080
X39370Y5080
T4
X4359Y25903
X4359Y22103
T5
X53340Y17780
X55880Y17780
X58420Y17780
X60960Y17780
X63500Y17780
X66040Y17780
X66040Y25400
X63500Y25400
X60960Y25400
X58420Y25400
X55880Y25400
X53340Y25400
X50800Y25400
X48260Y25400
X45720Y25400
X43180Y25400
X40640Y25400
X38100Y25400
X35560Y25400
X33020Y25400
X33020Y17780
X35560Y17780
X38100Y17780
X40640Y17780
X43180Y17780
X45720Y17780
X48260Y17780
X50800Y17780
T6
X64770Y40640
X25400Y27940
X25400Y26670
X3810Y30480
X2540Y30480
X13970Y9525
X22860Y11430
X21590Y11430
X20320Y11430
X25400Y16510
X25400Y17780
X25400Y19050
X38100Y11430
X36830Y11430
X35560Y11430
X20320Y2540
X13970Y8255
X25400Y25400
X64770Y38100
X64770Y39370
M30