G04 EAGLE Gerber RS-274X export*
G75*
%MOMM*%
%FSLAX34Y34*%
%LPD*%
%INBottom Copper*%
%IPPOS*%
%AMOC8*
5,1,8,0,0,1.08239X$1,22.5*%
G01*
%ADD10C,4.318000*%
%ADD11C,1.879600*%
%ADD12C,1.625600*%
%ADD13C,0.508000*%
%ADD14C,0.203200*%
%ADD15C,1.016000*%

G36*
X679302Y2547D02*
X679302Y2547D01*
X679338Y2544D01*
X681764Y2735D01*
X681923Y2770D01*
X681998Y2782D01*
X686612Y4282D01*
X686867Y4407D01*
X686881Y4420D01*
X686895Y4427D01*
X690819Y7281D01*
X691023Y7479D01*
X691033Y7495D01*
X691044Y7506D01*
X693892Y11434D01*
X694025Y11685D01*
X694029Y11703D01*
X694036Y11717D01*
X695530Y16334D01*
X695558Y16494D01*
X695577Y16568D01*
X695764Y18994D01*
X695761Y19038D01*
X695767Y19072D01*
X695767Y19082D01*
X695767Y19083D01*
X695767Y19084D01*
X695765Y20532D01*
X695768Y20548D01*
X695951Y462051D01*
X695950Y462057D01*
X695951Y463525D01*
X695945Y463569D01*
X695948Y463604D01*
X695760Y466030D01*
X695724Y466189D01*
X695713Y466265D01*
X694218Y470880D01*
X694196Y470925D01*
X694186Y470962D01*
X694140Y471041D01*
X694093Y471136D01*
X694081Y471150D01*
X694074Y471164D01*
X691225Y475091D01*
X691027Y475296D01*
X691011Y475305D01*
X691000Y475316D01*
X687077Y478171D01*
X686826Y478304D01*
X686808Y478308D01*
X686794Y478315D01*
X682180Y479817D01*
X682020Y479845D01*
X681946Y479864D01*
X679520Y480056D01*
X679476Y480053D01*
X679440Y480059D01*
X19050Y480059D01*
X19006Y480053D01*
X18970Y480056D01*
X16547Y479865D01*
X16388Y479830D01*
X16312Y479819D01*
X11702Y478321D01*
X11447Y478196D01*
X11433Y478183D01*
X11419Y478177D01*
X7497Y475327D01*
X7293Y475130D01*
X7284Y475113D01*
X7273Y475103D01*
X4423Y471181D01*
X4363Y471067D01*
X4325Y471010D01*
X4314Y470974D01*
X4290Y470930D01*
X4286Y470912D01*
X4279Y470898D01*
X2781Y466288D01*
X2753Y466128D01*
X2735Y466053D01*
X2544Y463630D01*
X2547Y463585D01*
X2541Y463550D01*
X2541Y19050D01*
X2547Y19006D01*
X2544Y18970D01*
X2735Y16547D01*
X2770Y16388D01*
X2781Y16312D01*
X4279Y11702D01*
X4404Y11447D01*
X4417Y11433D01*
X4423Y11419D01*
X7273Y7497D01*
X7470Y7293D01*
X7487Y7284D01*
X7497Y7273D01*
X11419Y4423D01*
X11670Y4290D01*
X11688Y4286D01*
X11702Y4279D01*
X16312Y2781D01*
X16472Y2753D01*
X16547Y2735D01*
X18970Y2544D01*
X19015Y2547D01*
X19050Y2541D01*
X679258Y2541D01*
X679302Y2547D01*
G37*
%LPC*%
G36*
X283217Y4571D02*
X283217Y4571D01*
X272880Y14909D01*
X272878Y14910D01*
X272877Y14911D01*
X272764Y14996D01*
X272652Y15080D01*
X272651Y15080D01*
X272650Y15081D01*
X272518Y15131D01*
X272387Y15181D01*
X272385Y15181D01*
X272384Y15182D01*
X272239Y15193D01*
X272103Y15204D01*
X272102Y15204D01*
X272100Y15204D01*
X272085Y15201D01*
X271825Y15149D01*
X271798Y15135D01*
X271773Y15129D01*
X268974Y13969D01*
X264426Y13969D01*
X260225Y15710D01*
X257010Y18925D01*
X255850Y21725D01*
X255849Y21726D01*
X255849Y21727D01*
X255778Y21846D01*
X255705Y21969D01*
X255704Y21970D01*
X255703Y21972D01*
X255600Y22069D01*
X255499Y22165D01*
X255497Y22165D01*
X255496Y22166D01*
X255370Y22231D01*
X255246Y22295D01*
X255244Y22295D01*
X255243Y22296D01*
X255228Y22298D01*
X254967Y22350D01*
X254937Y22347D01*
X254912Y22351D01*
X210314Y22351D01*
X210313Y22351D01*
X210311Y22351D01*
X210170Y22331D01*
X210033Y22311D01*
X210031Y22311D01*
X210030Y22311D01*
X209900Y22252D01*
X209773Y22195D01*
X209772Y22194D01*
X209771Y22193D01*
X209662Y22100D01*
X209556Y22012D01*
X209556Y22010D01*
X209554Y22009D01*
X209546Y21996D01*
X209399Y21775D01*
X209390Y21746D01*
X209376Y21725D01*
X209230Y21371D01*
X207229Y19370D01*
X204615Y18287D01*
X201785Y18287D01*
X199171Y19370D01*
X197170Y21371D01*
X196087Y23985D01*
X196087Y26815D01*
X197170Y29429D01*
X199171Y31430D01*
X201785Y32513D01*
X204615Y32513D01*
X207229Y31430D01*
X209230Y29429D01*
X209376Y29075D01*
X209377Y29074D01*
X209378Y29073D01*
X209448Y28954D01*
X209521Y28831D01*
X209522Y28830D01*
X209523Y28828D01*
X209627Y28730D01*
X209728Y28635D01*
X209729Y28635D01*
X209730Y28634D01*
X209856Y28569D01*
X209980Y28505D01*
X209982Y28505D01*
X209983Y28504D01*
X209998Y28502D01*
X210259Y28450D01*
X210290Y28453D01*
X210314Y28449D01*
X254912Y28449D01*
X254913Y28449D01*
X254915Y28449D01*
X255055Y28469D01*
X255193Y28489D01*
X255195Y28489D01*
X255196Y28489D01*
X255321Y28546D01*
X255453Y28605D01*
X255454Y28606D01*
X255455Y28607D01*
X255563Y28698D01*
X255670Y28788D01*
X255671Y28790D01*
X255672Y28791D01*
X255680Y28804D01*
X255827Y29025D01*
X255837Y29054D01*
X255850Y29075D01*
X257010Y31875D01*
X260225Y35090D01*
X263025Y36250D01*
X263026Y36251D01*
X263027Y36251D01*
X263146Y36322D01*
X263269Y36395D01*
X263270Y36396D01*
X263272Y36397D01*
X263369Y36500D01*
X263465Y36601D01*
X263465Y36603D01*
X263466Y36604D01*
X263531Y36730D01*
X263595Y36854D01*
X263595Y36856D01*
X263596Y36857D01*
X263598Y36872D01*
X263650Y37133D01*
X263647Y37163D01*
X263651Y37188D01*
X263651Y39012D01*
X263651Y39013D01*
X263651Y39015D01*
X263631Y39155D01*
X263611Y39293D01*
X263611Y39295D01*
X263611Y39296D01*
X263554Y39422D01*
X263495Y39553D01*
X263494Y39554D01*
X263493Y39555D01*
X263403Y39662D01*
X263312Y39770D01*
X263310Y39771D01*
X263309Y39772D01*
X263296Y39780D01*
X263075Y39927D01*
X263046Y39937D01*
X263025Y39950D01*
X260225Y41110D01*
X257010Y44325D01*
X255269Y48526D01*
X255269Y53074D01*
X257010Y57275D01*
X260225Y60490D01*
X264426Y62231D01*
X268974Y62231D01*
X273175Y60490D01*
X276390Y57275D01*
X278131Y53074D01*
X278131Y48526D01*
X276390Y44325D01*
X273175Y41110D01*
X270375Y39950D01*
X270374Y39949D01*
X270373Y39949D01*
X270254Y39878D01*
X270131Y39805D01*
X270130Y39804D01*
X270128Y39803D01*
X270030Y39698D01*
X269935Y39599D01*
X269935Y39597D01*
X269934Y39596D01*
X269869Y39469D01*
X269805Y39346D01*
X269805Y39344D01*
X269804Y39343D01*
X269802Y39328D01*
X269750Y39067D01*
X269753Y39037D01*
X269749Y39012D01*
X269749Y37188D01*
X269749Y37187D01*
X269749Y37185D01*
X269769Y37045D01*
X269789Y36907D01*
X269789Y36905D01*
X269789Y36904D01*
X269846Y36778D01*
X269905Y36647D01*
X269906Y36646D01*
X269907Y36645D01*
X269998Y36537D01*
X270088Y36430D01*
X270090Y36429D01*
X270091Y36428D01*
X270104Y36420D01*
X270325Y36273D01*
X270354Y36263D01*
X270375Y36250D01*
X273175Y35090D01*
X276390Y31875D01*
X278131Y27674D01*
X278131Y23126D01*
X276971Y20327D01*
X276971Y20325D01*
X276970Y20324D01*
X276934Y20185D01*
X276900Y20051D01*
X276900Y20050D01*
X276900Y20048D01*
X276904Y19908D01*
X276908Y19767D01*
X276909Y19766D01*
X276909Y19764D01*
X276952Y19631D01*
X276995Y19497D01*
X276996Y19495D01*
X276996Y19494D01*
X277005Y19482D01*
X277153Y19260D01*
X277177Y19241D01*
X277191Y19220D01*
X285445Y10966D01*
X285515Y10914D01*
X285579Y10854D01*
X285629Y10828D01*
X285673Y10795D01*
X285754Y10764D01*
X285832Y10724D01*
X285880Y10716D01*
X285938Y10694D01*
X286086Y10682D01*
X286163Y10669D01*
X620617Y10669D01*
X620703Y10681D01*
X620791Y10684D01*
X620843Y10701D01*
X620898Y10709D01*
X620978Y10744D01*
X621061Y10771D01*
X621100Y10799D01*
X621158Y10825D01*
X621271Y10921D01*
X621335Y10966D01*
X631654Y21285D01*
X631706Y21355D01*
X631766Y21419D01*
X631792Y21469D01*
X631825Y21513D01*
X631856Y21594D01*
X631896Y21672D01*
X631904Y21720D01*
X631926Y21778D01*
X631938Y21926D01*
X631951Y22003D01*
X631951Y90163D01*
X682454Y140665D01*
X682506Y140735D01*
X682566Y140799D01*
X682592Y140849D01*
X682625Y140893D01*
X682656Y140974D01*
X682696Y141052D01*
X682704Y141100D01*
X682726Y141158D01*
X682738Y141306D01*
X682751Y141383D01*
X682751Y142589D01*
X682747Y142618D01*
X682750Y142647D01*
X682727Y142758D01*
X682711Y142870D01*
X682699Y142897D01*
X682694Y142926D01*
X682641Y143026D01*
X682595Y143130D01*
X682576Y143152D01*
X682563Y143178D01*
X682485Y143260D01*
X682412Y143347D01*
X682387Y143363D01*
X682367Y143384D01*
X682269Y143441D01*
X682175Y143504D01*
X682147Y143513D01*
X682122Y143528D01*
X682012Y143556D01*
X681904Y143590D01*
X681874Y143591D01*
X681846Y143598D01*
X681733Y143594D01*
X681620Y143597D01*
X681591Y143590D01*
X681562Y143589D01*
X681454Y143554D01*
X681345Y143525D01*
X681319Y143511D01*
X681291Y143501D01*
X681227Y143456D01*
X681100Y143380D01*
X681057Y143335D01*
X681018Y143307D01*
X680415Y142704D01*
X619296Y81585D01*
X619296Y81584D01*
X617213Y79501D01*
X146814Y79501D01*
X146813Y79501D01*
X146811Y79501D01*
X146670Y79481D01*
X146533Y79461D01*
X146531Y79461D01*
X146530Y79461D01*
X146400Y79402D01*
X146273Y79345D01*
X146272Y79344D01*
X146271Y79343D01*
X146162Y79250D01*
X146056Y79162D01*
X146056Y79160D01*
X146054Y79159D01*
X146046Y79146D01*
X145899Y78925D01*
X145890Y78896D01*
X145876Y78875D01*
X145730Y78521D01*
X144635Y77426D01*
X144617Y77402D01*
X144595Y77383D01*
X144532Y77289D01*
X144464Y77199D01*
X144453Y77171D01*
X144437Y77147D01*
X144403Y77039D01*
X144363Y76933D01*
X144360Y76904D01*
X144351Y76876D01*
X144348Y76762D01*
X144339Y76650D01*
X144345Y76621D01*
X144344Y76592D01*
X144373Y76482D01*
X144395Y76371D01*
X144409Y76345D01*
X144416Y76317D01*
X144474Y76219D01*
X144526Y76119D01*
X144546Y76097D01*
X144561Y76072D01*
X144644Y75995D01*
X144722Y75913D01*
X144747Y75898D01*
X144768Y75878D01*
X144869Y75826D01*
X144967Y75769D01*
X144995Y75762D01*
X145022Y75748D01*
X145099Y75735D01*
X145243Y75699D01*
X145305Y75701D01*
X145353Y75693D01*
X438774Y75693D01*
X449073Y65394D01*
X449073Y61957D01*
X449073Y61955D01*
X449073Y61954D01*
X449093Y61813D01*
X449113Y61675D01*
X449113Y61674D01*
X449113Y61672D01*
X449172Y61542D01*
X449229Y61416D01*
X449230Y61415D01*
X449231Y61413D01*
X449323Y61304D01*
X449412Y61199D01*
X449414Y61198D01*
X449415Y61197D01*
X449428Y61189D01*
X449649Y61041D01*
X449678Y61032D01*
X449699Y61019D01*
X450975Y60491D01*
X454190Y57275D01*
X455931Y53074D01*
X455931Y48526D01*
X454190Y44325D01*
X450975Y41109D01*
X449699Y40581D01*
X449698Y40580D01*
X449697Y40580D01*
X449576Y40508D01*
X449455Y40437D01*
X449454Y40436D01*
X449452Y40435D01*
X449354Y40330D01*
X449259Y40230D01*
X449259Y40229D01*
X449258Y40227D01*
X449193Y40102D01*
X449129Y39977D01*
X449129Y39976D01*
X449128Y39974D01*
X449126Y39959D01*
X449074Y39698D01*
X449077Y39668D01*
X449073Y39643D01*
X449073Y36557D01*
X449073Y36555D01*
X449073Y36554D01*
X449093Y36414D01*
X449113Y36275D01*
X449113Y36274D01*
X449113Y36272D01*
X449170Y36146D01*
X449229Y36016D01*
X449230Y36015D01*
X449231Y36013D01*
X449323Y35904D01*
X449412Y35799D01*
X449414Y35798D01*
X449415Y35797D01*
X449428Y35789D01*
X449649Y35641D01*
X449678Y35632D01*
X449699Y35619D01*
X450975Y35090D01*
X454190Y31875D01*
X455931Y27674D01*
X455931Y23126D01*
X454190Y18925D01*
X450975Y15710D01*
X446774Y13969D01*
X442226Y13969D01*
X438025Y15710D01*
X434810Y18925D01*
X433069Y23126D01*
X433069Y27674D01*
X434810Y31875D01*
X438025Y35090D01*
X439301Y35619D01*
X439302Y35620D01*
X439303Y35620D01*
X439422Y35690D01*
X439545Y35763D01*
X439546Y35765D01*
X439548Y35765D01*
X439645Y35869D01*
X439741Y35970D01*
X439741Y35971D01*
X439742Y35973D01*
X439807Y36098D01*
X439871Y36223D01*
X439871Y36224D01*
X439872Y36226D01*
X439874Y36241D01*
X439926Y36502D01*
X439923Y36532D01*
X439927Y36557D01*
X439927Y39643D01*
X439927Y39645D01*
X439927Y39646D01*
X439907Y39787D01*
X439887Y39925D01*
X439887Y39926D01*
X439887Y39928D01*
X439829Y40056D01*
X439771Y40184D01*
X439770Y40185D01*
X439769Y40187D01*
X439678Y40294D01*
X439588Y40401D01*
X439586Y40402D01*
X439585Y40403D01*
X439572Y40411D01*
X439351Y40559D01*
X439322Y40568D01*
X439301Y40581D01*
X438025Y41109D01*
X434810Y44325D01*
X433069Y48526D01*
X433069Y53074D01*
X434810Y57275D01*
X438025Y60491D01*
X438755Y60793D01*
X438854Y60851D01*
X438956Y60904D01*
X438976Y60923D01*
X439000Y60937D01*
X439079Y61021D01*
X439162Y61100D01*
X439176Y61124D01*
X439195Y61144D01*
X439248Y61246D01*
X439306Y61345D01*
X439313Y61372D01*
X439325Y61397D01*
X439348Y61510D01*
X439376Y61621D01*
X439375Y61648D01*
X439380Y61676D01*
X439370Y61790D01*
X439367Y61905D01*
X439358Y61931D01*
X439356Y61959D01*
X439315Y62066D01*
X439279Y62175D01*
X439265Y62196D01*
X439254Y62224D01*
X439093Y62437D01*
X439084Y62449D01*
X435283Y66250D01*
X435213Y66302D01*
X435150Y66362D01*
X435100Y66388D01*
X435056Y66421D01*
X434974Y66452D01*
X434896Y66492D01*
X434849Y66500D01*
X434790Y66522D01*
X434643Y66534D01*
X434565Y66547D01*
X130186Y66547D01*
X105917Y90816D01*
X105917Y311758D01*
X105901Y311871D01*
X105892Y311985D01*
X105881Y312011D01*
X105877Y312039D01*
X105831Y312144D01*
X105790Y312250D01*
X105773Y312273D01*
X105761Y312299D01*
X105687Y312386D01*
X105618Y312477D01*
X105596Y312494D01*
X105578Y312516D01*
X105482Y312579D01*
X105391Y312648D01*
X105365Y312658D01*
X105341Y312673D01*
X105232Y312708D01*
X105125Y312748D01*
X105097Y312751D01*
X105070Y312759D01*
X104956Y312762D01*
X104842Y312771D01*
X104814Y312766D01*
X104786Y312766D01*
X104675Y312738D01*
X104563Y312715D01*
X104538Y312702D01*
X104511Y312695D01*
X104413Y312636D01*
X104311Y312583D01*
X104291Y312564D01*
X104266Y312549D01*
X104188Y312466D01*
X104105Y312387D01*
X104093Y312365D01*
X104072Y312342D01*
X103953Y312110D01*
X103944Y312093D01*
X103929Y312051D01*
X103719Y311616D01*
X103719Y311615D01*
X103230Y310600D01*
X102753Y309609D01*
X101311Y307314D01*
X99621Y305195D01*
X97705Y303279D01*
X95586Y301589D01*
X94439Y300868D01*
X93291Y300147D01*
X90849Y298971D01*
X88291Y298076D01*
X85649Y297473D01*
X83631Y297245D01*
X83631Y320284D01*
X83623Y320342D01*
X83625Y320400D01*
X83603Y320482D01*
X83591Y320565D01*
X83567Y320619D01*
X83553Y320675D01*
X83510Y320748D01*
X83475Y320825D01*
X83437Y320869D01*
X83407Y320920D01*
X83346Y320977D01*
X83291Y321042D01*
X83243Y321074D01*
X83200Y321114D01*
X83125Y321153D01*
X83055Y321199D01*
X82999Y321217D01*
X82947Y321244D01*
X82879Y321255D01*
X82784Y321285D01*
X82684Y321288D01*
X82616Y321299D01*
X81599Y321299D01*
X81599Y321301D01*
X82616Y321301D01*
X82674Y321309D01*
X82732Y321308D01*
X82814Y321329D01*
X82897Y321341D01*
X82951Y321365D01*
X83007Y321379D01*
X83080Y321422D01*
X83157Y321457D01*
X83202Y321495D01*
X83252Y321525D01*
X83310Y321586D01*
X83374Y321641D01*
X83406Y321689D01*
X83446Y321732D01*
X83485Y321807D01*
X83531Y321877D01*
X83549Y321933D01*
X83576Y321985D01*
X83587Y322053D01*
X83617Y322148D01*
X83620Y322248D01*
X83631Y322316D01*
X83631Y345355D01*
X85649Y345127D01*
X88291Y344524D01*
X90849Y343629D01*
X93291Y342453D01*
X95586Y341011D01*
X97705Y339321D01*
X99621Y337405D01*
X101311Y335286D01*
X102753Y332991D01*
X103929Y330549D01*
X103944Y330507D01*
X103996Y330405D01*
X104043Y330301D01*
X104061Y330280D01*
X104074Y330254D01*
X104153Y330171D01*
X104227Y330084D01*
X104250Y330069D01*
X104270Y330048D01*
X104368Y329990D01*
X104463Y329927D01*
X104490Y329918D01*
X104514Y329904D01*
X104625Y329875D01*
X104734Y329841D01*
X104762Y329840D01*
X104790Y329833D01*
X104904Y329836D01*
X105018Y329834D01*
X105046Y329841D01*
X105074Y329842D01*
X105183Y329877D01*
X105293Y329905D01*
X105318Y329920D01*
X105345Y329928D01*
X105440Y329992D01*
X105538Y330051D01*
X105557Y330071D01*
X105581Y330087D01*
X105654Y330175D01*
X105732Y330258D01*
X105745Y330283D01*
X105763Y330305D01*
X105810Y330409D01*
X105862Y330511D01*
X105866Y330536D01*
X105879Y330565D01*
X105914Y330823D01*
X105917Y330842D01*
X105917Y344406D01*
X105917Y344408D01*
X105917Y344410D01*
X105898Y344543D01*
X105877Y344688D01*
X105877Y344689D01*
X105877Y344691D01*
X105820Y344817D01*
X105761Y344947D01*
X105760Y344949D01*
X105759Y344950D01*
X105668Y345057D01*
X105578Y345164D01*
X105576Y345165D01*
X105575Y345166D01*
X105562Y345175D01*
X105341Y345322D01*
X105312Y345331D01*
X105291Y345344D01*
X98219Y348274D01*
X91574Y354919D01*
X87977Y363601D01*
X87977Y372999D01*
X91574Y381681D01*
X98219Y388326D01*
X106901Y391923D01*
X116299Y391923D01*
X124981Y388326D01*
X131626Y381681D01*
X135223Y372999D01*
X135223Y363601D01*
X131626Y354919D01*
X124981Y348274D01*
X116299Y344677D01*
X116078Y344677D01*
X116020Y344669D01*
X115962Y344671D01*
X115880Y344649D01*
X115796Y344637D01*
X115743Y344614D01*
X115687Y344599D01*
X115614Y344556D01*
X115537Y344521D01*
X115492Y344483D01*
X115442Y344454D01*
X115384Y344392D01*
X115320Y344338D01*
X115288Y344289D01*
X115248Y344246D01*
X115209Y344171D01*
X115162Y344101D01*
X115145Y344045D01*
X115118Y343993D01*
X115107Y343925D01*
X115077Y343830D01*
X115074Y343730D01*
X115063Y343662D01*
X115063Y95025D01*
X115075Y94938D01*
X115078Y94851D01*
X115095Y94798D01*
X115103Y94743D01*
X115138Y94663D01*
X115165Y94580D01*
X115193Y94541D01*
X115219Y94484D01*
X115315Y94371D01*
X115360Y94307D01*
X131846Y77821D01*
X131915Y77769D01*
X131977Y77710D01*
X132028Y77684D01*
X132073Y77650D01*
X132153Y77619D01*
X132230Y77580D01*
X132286Y77569D01*
X132339Y77549D01*
X132424Y77542D01*
X132509Y77525D01*
X132565Y77530D01*
X132622Y77525D01*
X132706Y77542D01*
X132792Y77549D01*
X132845Y77570D01*
X132901Y77581D01*
X132977Y77621D01*
X133057Y77651D01*
X133103Y77686D01*
X133153Y77712D01*
X133215Y77771D01*
X133284Y77823D01*
X133318Y77869D01*
X133359Y77908D01*
X133403Y77982D01*
X133454Y78051D01*
X133474Y78104D01*
X133503Y78153D01*
X133524Y78236D01*
X133555Y78317D01*
X133559Y78374D01*
X133573Y78429D01*
X133570Y78514D01*
X133577Y78600D01*
X133566Y78648D01*
X133564Y78713D01*
X133520Y78851D01*
X133502Y78927D01*
X132587Y81135D01*
X132587Y83965D01*
X133670Y86579D01*
X135273Y88182D01*
X135308Y88229D01*
X135351Y88269D01*
X135393Y88342D01*
X135444Y88409D01*
X135465Y88464D01*
X135494Y88514D01*
X135515Y88596D01*
X135545Y88675D01*
X135550Y88733D01*
X135565Y88790D01*
X135562Y88874D01*
X135569Y88958D01*
X135557Y89016D01*
X135556Y89074D01*
X135530Y89154D01*
X135513Y89237D01*
X135486Y89289D01*
X135468Y89345D01*
X135428Y89401D01*
X135382Y89489D01*
X135313Y89562D01*
X135273Y89618D01*
X133670Y91221D01*
X132587Y93835D01*
X132587Y96665D01*
X133670Y99279D01*
X135671Y101280D01*
X138285Y102363D01*
X141115Y102363D01*
X143729Y101280D01*
X145730Y99279D01*
X145876Y98925D01*
X145877Y98924D01*
X145878Y98923D01*
X145948Y98804D01*
X146021Y98681D01*
X146022Y98680D01*
X146023Y98678D01*
X146127Y98580D01*
X146228Y98485D01*
X146229Y98485D01*
X146230Y98484D01*
X146356Y98419D01*
X146480Y98355D01*
X146482Y98355D01*
X146483Y98354D01*
X146498Y98352D01*
X146759Y98300D01*
X146790Y98303D01*
X146814Y98299D01*
X614267Y98299D01*
X614353Y98311D01*
X614441Y98314D01*
X614493Y98331D01*
X614548Y98339D01*
X614628Y98374D01*
X614711Y98401D01*
X614750Y98429D01*
X614808Y98455D01*
X614921Y98551D01*
X614985Y98596D01*
X669754Y153365D01*
X669806Y153435D01*
X669866Y153499D01*
X669892Y153549D01*
X669925Y153593D01*
X669956Y153674D01*
X669996Y153752D01*
X670004Y153800D01*
X670026Y153858D01*
X670038Y154006D01*
X670051Y154083D01*
X670051Y170631D01*
X670047Y170660D01*
X670050Y170689D01*
X670027Y170800D01*
X670011Y170912D01*
X669999Y170939D01*
X669994Y170968D01*
X669941Y171069D01*
X669895Y171172D01*
X669876Y171194D01*
X669863Y171220D01*
X669785Y171302D01*
X669712Y171389D01*
X669687Y171405D01*
X669667Y171426D01*
X669569Y171483D01*
X669475Y171546D01*
X669447Y171555D01*
X669422Y171570D01*
X669312Y171598D01*
X669204Y171632D01*
X669174Y171633D01*
X669146Y171640D01*
X669033Y171636D01*
X668920Y171639D01*
X668891Y171632D01*
X668862Y171631D01*
X668754Y171596D01*
X668645Y171568D01*
X668619Y171553D01*
X668591Y171544D01*
X668528Y171498D01*
X668400Y171422D01*
X668357Y171377D01*
X668318Y171349D01*
X666156Y169186D01*
X662421Y167639D01*
X658379Y167639D01*
X654644Y169186D01*
X651786Y172044D01*
X650239Y175779D01*
X650239Y179821D01*
X651786Y183556D01*
X654644Y186414D01*
X658379Y187961D01*
X662421Y187961D01*
X666156Y186414D01*
X668318Y184251D01*
X668342Y184234D01*
X668361Y184211D01*
X668455Y184149D01*
X668545Y184080D01*
X668573Y184070D01*
X668597Y184054D01*
X668705Y184019D01*
X668811Y183979D01*
X668840Y183977D01*
X668868Y183968D01*
X668982Y183965D01*
X669094Y183956D01*
X669123Y183961D01*
X669152Y183961D01*
X669262Y183989D01*
X669373Y184012D01*
X669399Y184025D01*
X669427Y184032D01*
X669525Y184090D01*
X669625Y184143D01*
X669647Y184163D01*
X669672Y184178D01*
X669749Y184260D01*
X669831Y184338D01*
X669846Y184364D01*
X669866Y184385D01*
X669918Y184486D01*
X669975Y184584D01*
X669982Y184612D01*
X669996Y184638D01*
X670009Y184715D01*
X670045Y184859D01*
X670043Y184922D01*
X670051Y184969D01*
X670051Y188817D01*
X670039Y188903D01*
X670036Y188991D01*
X670019Y189043D01*
X670011Y189098D01*
X669976Y189178D01*
X669949Y189261D01*
X669921Y189300D01*
X669895Y189358D01*
X669799Y189471D01*
X669754Y189535D01*
X614808Y244481D01*
X614806Y244482D01*
X614805Y244483D01*
X614691Y244569D01*
X614580Y244652D01*
X614579Y244652D01*
X614578Y244653D01*
X614444Y244704D01*
X614315Y244753D01*
X614313Y244753D01*
X614312Y244754D01*
X614167Y244765D01*
X614031Y244776D01*
X614030Y244776D01*
X614028Y244776D01*
X614013Y244773D01*
X613753Y244721D01*
X613726Y244707D01*
X613701Y244701D01*
X611621Y243839D01*
X607579Y243839D01*
X603844Y245386D01*
X600986Y248244D01*
X599439Y251979D01*
X599439Y256021D01*
X600986Y259756D01*
X603844Y262614D01*
X605925Y263475D01*
X605926Y263476D01*
X605927Y263477D01*
X606046Y263547D01*
X606169Y263620D01*
X606170Y263621D01*
X606172Y263622D01*
X606269Y263726D01*
X606365Y263827D01*
X606365Y263828D01*
X606366Y263829D01*
X606431Y263955D01*
X606495Y264079D01*
X606495Y264081D01*
X606496Y264082D01*
X606498Y264097D01*
X606550Y264358D01*
X606547Y264389D01*
X606551Y264413D01*
X606551Y328517D01*
X606539Y328603D01*
X606536Y328691D01*
X606519Y328743D01*
X606511Y328798D01*
X606476Y328878D01*
X606449Y328961D01*
X606421Y329000D01*
X606395Y329058D01*
X606299Y329171D01*
X606254Y329235D01*
X581151Y354337D01*
X581151Y420012D01*
X581151Y420013D01*
X581151Y420015D01*
X581131Y420155D01*
X581111Y420293D01*
X581111Y420295D01*
X581111Y420296D01*
X581054Y420422D01*
X580995Y420553D01*
X580994Y420554D01*
X580993Y420555D01*
X580903Y420662D01*
X580812Y420770D01*
X580810Y420771D01*
X580809Y420772D01*
X580796Y420780D01*
X580575Y420927D01*
X580546Y420937D01*
X580525Y420950D01*
X577725Y422110D01*
X574510Y425325D01*
X572769Y429526D01*
X572769Y434074D01*
X574510Y438275D01*
X577725Y441490D01*
X581926Y443231D01*
X586474Y443231D01*
X590675Y441490D01*
X593890Y438275D01*
X595631Y434074D01*
X595631Y429526D01*
X593890Y425325D01*
X590675Y422110D01*
X587875Y420950D01*
X587874Y420949D01*
X587873Y420949D01*
X587754Y420878D01*
X587631Y420805D01*
X587630Y420804D01*
X587628Y420803D01*
X587531Y420700D01*
X587435Y420599D01*
X587435Y420597D01*
X587434Y420596D01*
X587369Y420470D01*
X587305Y420346D01*
X587305Y420344D01*
X587304Y420343D01*
X587302Y420328D01*
X587250Y420067D01*
X587253Y420037D01*
X587249Y420012D01*
X587249Y357283D01*
X587261Y357197D01*
X587264Y357109D01*
X587281Y357057D01*
X587289Y357002D01*
X587324Y356922D01*
X587351Y356839D01*
X587379Y356800D01*
X587405Y356742D01*
X587501Y356629D01*
X587546Y356565D01*
X612649Y331463D01*
X612649Y264413D01*
X612649Y264412D01*
X612649Y264410D01*
X612656Y264363D01*
X612655Y264359D01*
X612657Y264352D01*
X612669Y264268D01*
X612689Y264132D01*
X612689Y264131D01*
X612689Y264129D01*
X612746Y264003D01*
X612805Y263873D01*
X612806Y263871D01*
X612807Y263870D01*
X612898Y263763D01*
X612988Y263656D01*
X612990Y263655D01*
X612991Y263653D01*
X613004Y263645D01*
X613225Y263498D01*
X613254Y263489D01*
X613275Y263475D01*
X615356Y262614D01*
X618214Y259756D01*
X619761Y256021D01*
X619761Y251979D01*
X618899Y249899D01*
X618899Y249897D01*
X618898Y249896D01*
X618864Y249762D01*
X618828Y249623D01*
X618828Y249622D01*
X618828Y249620D01*
X618832Y249480D01*
X618836Y249339D01*
X618837Y249338D01*
X618837Y249336D01*
X618881Y249201D01*
X618923Y249069D01*
X618924Y249067D01*
X618924Y249066D01*
X618933Y249054D01*
X619081Y248832D01*
X619105Y248813D01*
X619119Y248792D01*
X674668Y193243D01*
X674692Y193226D01*
X674711Y193203D01*
X674805Y193140D01*
X674895Y193073D01*
X674923Y193062D01*
X674947Y193046D01*
X675055Y193012D01*
X675161Y192971D01*
X675190Y192969D01*
X675218Y192960D01*
X675332Y192957D01*
X675444Y192948D01*
X675473Y192953D01*
X675502Y192953D01*
X675612Y192981D01*
X675723Y193004D01*
X675749Y193017D01*
X675777Y193025D01*
X675875Y193082D01*
X675975Y193135D01*
X675997Y193155D01*
X676022Y193170D01*
X676099Y193252D01*
X676181Y193330D01*
X676196Y193356D01*
X676216Y193377D01*
X676268Y193478D01*
X676325Y193576D01*
X676332Y193604D01*
X676346Y193630D01*
X676359Y193708D01*
X676395Y193851D01*
X676393Y193914D01*
X676401Y193961D01*
X676401Y207867D01*
X676389Y207953D01*
X676386Y208041D01*
X676369Y208093D01*
X676361Y208148D01*
X676326Y208228D01*
X676299Y208311D01*
X676271Y208350D01*
X676245Y208408D01*
X676149Y208521D01*
X676104Y208585D01*
X640208Y244481D01*
X640206Y244482D01*
X640205Y244483D01*
X640093Y244567D01*
X639980Y244652D01*
X639979Y244652D01*
X639978Y244653D01*
X639848Y244702D01*
X639715Y244753D01*
X639713Y244753D01*
X639712Y244754D01*
X639567Y244765D01*
X639431Y244776D01*
X639430Y244776D01*
X639428Y244776D01*
X639413Y244773D01*
X639153Y244721D01*
X639126Y244707D01*
X639101Y244701D01*
X637021Y243839D01*
X632979Y243839D01*
X629244Y245386D01*
X626386Y248244D01*
X624839Y251979D01*
X624839Y256021D01*
X626386Y259756D01*
X629244Y262614D01*
X631325Y263475D01*
X631326Y263476D01*
X631327Y263477D01*
X631446Y263547D01*
X631569Y263620D01*
X631570Y263621D01*
X631572Y263622D01*
X631669Y263726D01*
X631765Y263827D01*
X631765Y263828D01*
X631766Y263829D01*
X631831Y263955D01*
X631895Y264079D01*
X631895Y264081D01*
X631896Y264082D01*
X631898Y264097D01*
X631950Y264358D01*
X631947Y264389D01*
X631951Y264413D01*
X631951Y328517D01*
X631939Y328603D01*
X631936Y328691D01*
X631919Y328743D01*
X631911Y328798D01*
X631876Y328878D01*
X631849Y328961D01*
X631821Y329000D01*
X631795Y329058D01*
X631699Y329171D01*
X631654Y329235D01*
X608635Y352254D01*
X608634Y352254D01*
X606551Y354337D01*
X606551Y420012D01*
X606551Y420013D01*
X606551Y420015D01*
X606531Y420155D01*
X606511Y420293D01*
X606511Y420295D01*
X606511Y420296D01*
X606454Y420422D01*
X606395Y420553D01*
X606394Y420554D01*
X606393Y420555D01*
X606303Y420662D01*
X606212Y420770D01*
X606210Y420771D01*
X606209Y420772D01*
X606196Y420780D01*
X605975Y420927D01*
X605946Y420937D01*
X605925Y420950D01*
X603125Y422110D01*
X599910Y425325D01*
X598169Y429526D01*
X598169Y434074D01*
X599910Y438275D01*
X603125Y441490D01*
X607326Y443231D01*
X611874Y443231D01*
X616075Y441490D01*
X619290Y438275D01*
X621031Y434074D01*
X621031Y429526D01*
X619290Y425325D01*
X616075Y422110D01*
X613275Y420950D01*
X613274Y420949D01*
X613273Y420949D01*
X613154Y420878D01*
X613031Y420805D01*
X613030Y420804D01*
X613028Y420803D01*
X612931Y420700D01*
X612835Y420599D01*
X612835Y420597D01*
X612834Y420596D01*
X612769Y420470D01*
X612705Y420346D01*
X612705Y420344D01*
X612704Y420343D01*
X612702Y420328D01*
X612650Y420067D01*
X612653Y420037D01*
X612649Y420012D01*
X612649Y357283D01*
X612661Y357197D01*
X612664Y357109D01*
X612681Y357057D01*
X612689Y357002D01*
X612724Y356922D01*
X612751Y356839D01*
X612779Y356800D01*
X612805Y356742D01*
X612901Y356629D01*
X612946Y356565D01*
X638049Y331463D01*
X638049Y264413D01*
X638049Y264412D01*
X638049Y264410D01*
X638056Y264363D01*
X638055Y264359D01*
X638057Y264352D01*
X638069Y264268D01*
X638089Y264132D01*
X638089Y264131D01*
X638089Y264129D01*
X638146Y264003D01*
X638205Y263873D01*
X638206Y263871D01*
X638207Y263870D01*
X638298Y263763D01*
X638388Y263656D01*
X638390Y263655D01*
X638391Y263653D01*
X638404Y263645D01*
X638625Y263498D01*
X638654Y263489D01*
X638675Y263475D01*
X640756Y262614D01*
X643614Y259756D01*
X645161Y256021D01*
X645161Y251979D01*
X644299Y249899D01*
X644299Y249897D01*
X644298Y249896D01*
X644264Y249762D01*
X644228Y249623D01*
X644228Y249622D01*
X644228Y249620D01*
X644232Y249480D01*
X644236Y249339D01*
X644237Y249338D01*
X644237Y249336D01*
X644281Y249201D01*
X644323Y249069D01*
X644324Y249067D01*
X644324Y249066D01*
X644333Y249054D01*
X644481Y248832D01*
X644505Y248813D01*
X644519Y248792D01*
X681018Y212293D01*
X681042Y212276D01*
X681061Y212253D01*
X681155Y212190D01*
X681245Y212123D01*
X681273Y212112D01*
X681297Y212096D01*
X681405Y212062D01*
X681511Y212021D01*
X681540Y212019D01*
X681568Y212010D01*
X681682Y212007D01*
X681794Y211998D01*
X681823Y212003D01*
X681852Y212003D01*
X681962Y212031D01*
X682073Y212054D01*
X682099Y212067D01*
X682127Y212075D01*
X682225Y212132D01*
X682325Y212185D01*
X682347Y212205D01*
X682372Y212220D01*
X682449Y212302D01*
X682531Y212380D01*
X682546Y212406D01*
X682566Y212427D01*
X682618Y212528D01*
X682675Y212626D01*
X682682Y212654D01*
X682696Y212680D01*
X682709Y212758D01*
X682745Y212901D01*
X682743Y212964D01*
X682751Y213011D01*
X682751Y226917D01*
X682743Y226974D01*
X682745Y227027D01*
X682737Y227055D01*
X682736Y227091D01*
X682719Y227143D01*
X682711Y227198D01*
X682684Y227259D01*
X682673Y227302D01*
X682662Y227321D01*
X682649Y227361D01*
X682621Y227400D01*
X682595Y227458D01*
X682546Y227516D01*
X682528Y227547D01*
X682494Y227578D01*
X682454Y227635D01*
X665608Y244481D01*
X665606Y244482D01*
X665605Y244483D01*
X665491Y244569D01*
X665380Y244652D01*
X665379Y244652D01*
X665378Y244653D01*
X665244Y244704D01*
X665115Y244753D01*
X665113Y244753D01*
X665112Y244754D01*
X664967Y244765D01*
X664831Y244776D01*
X664830Y244776D01*
X664828Y244776D01*
X664813Y244773D01*
X664553Y244721D01*
X664526Y244707D01*
X664501Y244701D01*
X662421Y243839D01*
X658379Y243839D01*
X654644Y245386D01*
X651786Y248244D01*
X650239Y251979D01*
X650239Y256021D01*
X651786Y259756D01*
X654644Y262614D01*
X658379Y264161D01*
X662421Y264161D01*
X666156Y262614D01*
X669014Y259756D01*
X670561Y256021D01*
X670561Y251979D01*
X669699Y249899D01*
X669699Y249897D01*
X669698Y249896D01*
X669664Y249762D01*
X669628Y249623D01*
X669628Y249622D01*
X669628Y249620D01*
X669632Y249480D01*
X669636Y249339D01*
X669637Y249338D01*
X669637Y249336D01*
X669681Y249201D01*
X669723Y249069D01*
X669724Y249067D01*
X669724Y249066D01*
X669733Y249054D01*
X669881Y248832D01*
X669905Y248813D01*
X669919Y248792D01*
X686765Y231946D01*
X686766Y231946D01*
X688849Y229863D01*
X688849Y138437D01*
X638346Y87935D01*
X638294Y87865D01*
X638234Y87801D01*
X638208Y87751D01*
X638175Y87707D01*
X638144Y87626D01*
X638104Y87548D01*
X638096Y87500D01*
X638074Y87442D01*
X638062Y87294D01*
X638049Y87217D01*
X638049Y19057D01*
X623563Y4571D01*
X283217Y4571D01*
G37*
%LPD*%
%LPC*%
G36*
X303537Y136651D02*
X303537Y136651D01*
X276351Y163837D01*
X276351Y420012D01*
X276351Y420013D01*
X276351Y420015D01*
X276331Y420155D01*
X276311Y420293D01*
X276311Y420295D01*
X276311Y420296D01*
X276254Y420422D01*
X276195Y420553D01*
X276194Y420554D01*
X276193Y420555D01*
X276103Y420662D01*
X276012Y420770D01*
X276010Y420771D01*
X276009Y420772D01*
X275996Y420780D01*
X275775Y420927D01*
X275746Y420937D01*
X275725Y420950D01*
X272925Y422110D01*
X269710Y425325D01*
X267969Y429526D01*
X267969Y434074D01*
X269710Y438275D01*
X272925Y441490D01*
X277126Y443231D01*
X281674Y443231D01*
X285875Y441490D01*
X289090Y438275D01*
X290831Y434074D01*
X290831Y429526D01*
X289090Y425325D01*
X285875Y422110D01*
X283075Y420950D01*
X283074Y420949D01*
X283073Y420949D01*
X282954Y420878D01*
X282831Y420805D01*
X282830Y420804D01*
X282828Y420803D01*
X282731Y420700D01*
X282635Y420599D01*
X282635Y420597D01*
X282634Y420596D01*
X282569Y420470D01*
X282505Y420346D01*
X282505Y420344D01*
X282504Y420343D01*
X282502Y420328D01*
X282450Y420067D01*
X282453Y420037D01*
X282449Y420012D01*
X282449Y340011D01*
X282453Y339982D01*
X282450Y339953D01*
X282473Y339842D01*
X282489Y339730D01*
X282501Y339703D01*
X282506Y339674D01*
X282558Y339574D01*
X282605Y339470D01*
X282624Y339448D01*
X282637Y339422D01*
X282715Y339340D01*
X282788Y339253D01*
X282813Y339237D01*
X282833Y339216D01*
X282931Y339159D01*
X283025Y339096D01*
X283053Y339087D01*
X283078Y339072D01*
X283188Y339044D01*
X283296Y339010D01*
X283326Y339009D01*
X283354Y339002D01*
X283467Y339006D01*
X283580Y339003D01*
X283609Y339010D01*
X283638Y339011D01*
X283746Y339046D01*
X283855Y339075D01*
X283881Y339090D01*
X283909Y339099D01*
X283972Y339144D01*
X284100Y339220D01*
X284143Y339265D01*
X284182Y339293D01*
X301454Y356565D01*
X301506Y356635D01*
X301566Y356699D01*
X301592Y356749D01*
X301625Y356793D01*
X301656Y356874D01*
X301696Y356952D01*
X301704Y357000D01*
X301726Y357058D01*
X301738Y357206D01*
X301751Y357283D01*
X301751Y420012D01*
X301751Y420013D01*
X301751Y420015D01*
X301731Y420155D01*
X301711Y420293D01*
X301711Y420295D01*
X301711Y420296D01*
X301654Y420422D01*
X301595Y420553D01*
X301594Y420554D01*
X301593Y420555D01*
X301503Y420662D01*
X301412Y420770D01*
X301410Y420771D01*
X301409Y420772D01*
X301396Y420780D01*
X301175Y420927D01*
X301146Y420937D01*
X301125Y420950D01*
X298325Y422110D01*
X295110Y425325D01*
X293369Y429526D01*
X293369Y434074D01*
X295110Y438275D01*
X298325Y441490D01*
X302526Y443231D01*
X307074Y443231D01*
X311275Y441490D01*
X314490Y438275D01*
X316231Y434074D01*
X316231Y429526D01*
X314490Y425325D01*
X311275Y422110D01*
X308475Y420950D01*
X308474Y420949D01*
X308473Y420949D01*
X308354Y420878D01*
X308231Y420805D01*
X308230Y420804D01*
X308228Y420803D01*
X308131Y420700D01*
X308035Y420599D01*
X308035Y420597D01*
X308034Y420596D01*
X307969Y420470D01*
X307905Y420346D01*
X307905Y420344D01*
X307904Y420343D01*
X307902Y420328D01*
X307850Y420067D01*
X307853Y420037D01*
X307849Y420012D01*
X307849Y354337D01*
X289096Y335585D01*
X289044Y335515D01*
X288984Y335451D01*
X288958Y335401D01*
X288925Y335357D01*
X288894Y335276D01*
X288854Y335198D01*
X288846Y335150D01*
X288824Y335092D01*
X288812Y334944D01*
X288799Y334867D01*
X288799Y320961D01*
X288803Y320932D01*
X288800Y320903D01*
X288823Y320792D01*
X288839Y320680D01*
X288851Y320653D01*
X288856Y320624D01*
X288908Y320524D01*
X288955Y320420D01*
X288974Y320398D01*
X288987Y320372D01*
X289065Y320290D01*
X289138Y320203D01*
X289163Y320187D01*
X289183Y320166D01*
X289281Y320109D01*
X289375Y320046D01*
X289403Y320037D01*
X289428Y320022D01*
X289538Y319994D01*
X289646Y319960D01*
X289676Y319959D01*
X289704Y319952D01*
X289817Y319956D01*
X289930Y319953D01*
X289959Y319960D01*
X289988Y319961D01*
X290096Y319996D01*
X290205Y320025D01*
X290231Y320040D01*
X290259Y320049D01*
X290322Y320094D01*
X290450Y320170D01*
X290493Y320215D01*
X290532Y320243D01*
X326854Y356565D01*
X326906Y356635D01*
X326966Y356699D01*
X326992Y356749D01*
X327025Y356793D01*
X327056Y356874D01*
X327096Y356952D01*
X327104Y357000D01*
X327126Y357058D01*
X327138Y357206D01*
X327151Y357283D01*
X327151Y420012D01*
X327151Y420013D01*
X327151Y420015D01*
X327131Y420155D01*
X327111Y420293D01*
X327111Y420295D01*
X327111Y420296D01*
X327054Y420422D01*
X326995Y420553D01*
X326994Y420554D01*
X326993Y420555D01*
X326903Y420662D01*
X326812Y420770D01*
X326810Y420771D01*
X326809Y420772D01*
X326796Y420780D01*
X326575Y420927D01*
X326546Y420937D01*
X326525Y420950D01*
X323725Y422110D01*
X320510Y425325D01*
X318769Y429526D01*
X318769Y434074D01*
X320510Y438275D01*
X323725Y441490D01*
X327926Y443231D01*
X332474Y443231D01*
X336675Y441490D01*
X339890Y438275D01*
X341631Y434074D01*
X341631Y429526D01*
X339890Y425325D01*
X336675Y422110D01*
X333875Y420950D01*
X333874Y420949D01*
X333873Y420949D01*
X333754Y420878D01*
X333631Y420805D01*
X333630Y420804D01*
X333628Y420803D01*
X333531Y420700D01*
X333435Y420599D01*
X333435Y420597D01*
X333434Y420596D01*
X333369Y420470D01*
X333305Y420346D01*
X333305Y420344D01*
X333304Y420343D01*
X333302Y420328D01*
X333250Y420067D01*
X333253Y420037D01*
X333249Y420012D01*
X333249Y354337D01*
X295446Y316535D01*
X295394Y316465D01*
X295334Y316401D01*
X295308Y316351D01*
X295275Y316307D01*
X295244Y316226D01*
X295204Y316148D01*
X295196Y316100D01*
X295174Y316042D01*
X295162Y315894D01*
X295149Y315817D01*
X295149Y301911D01*
X295153Y301882D01*
X295150Y301853D01*
X295173Y301742D01*
X295189Y301630D01*
X295201Y301603D01*
X295206Y301574D01*
X295258Y301474D01*
X295305Y301370D01*
X295324Y301348D01*
X295337Y301322D01*
X295415Y301240D01*
X295488Y301153D01*
X295513Y301137D01*
X295533Y301116D01*
X295631Y301059D01*
X295725Y300996D01*
X295753Y300987D01*
X295778Y300972D01*
X295888Y300944D01*
X295996Y300910D01*
X296026Y300909D01*
X296054Y300902D01*
X296167Y300906D01*
X296280Y300903D01*
X296309Y300910D01*
X296338Y300911D01*
X296446Y300946D01*
X296555Y300975D01*
X296581Y300990D01*
X296609Y300999D01*
X296672Y301044D01*
X296800Y301120D01*
X296843Y301165D01*
X296882Y301193D01*
X352254Y356565D01*
X352306Y356635D01*
X352366Y356699D01*
X352392Y356749D01*
X352425Y356793D01*
X352456Y356874D01*
X352496Y356952D01*
X352504Y357000D01*
X352526Y357058D01*
X352538Y357206D01*
X352551Y357283D01*
X352551Y420012D01*
X352551Y420013D01*
X352551Y420015D01*
X352531Y420155D01*
X352511Y420293D01*
X352511Y420295D01*
X352511Y420296D01*
X352454Y420422D01*
X352395Y420553D01*
X352394Y420554D01*
X352393Y420555D01*
X352303Y420662D01*
X352212Y420770D01*
X352210Y420771D01*
X352209Y420772D01*
X352196Y420780D01*
X351975Y420927D01*
X351946Y420937D01*
X351925Y420950D01*
X349125Y422110D01*
X345910Y425325D01*
X344169Y429526D01*
X344169Y434074D01*
X345910Y438275D01*
X349125Y441490D01*
X353326Y443231D01*
X357874Y443231D01*
X362075Y441490D01*
X365290Y438275D01*
X367031Y434074D01*
X367031Y429526D01*
X365290Y425325D01*
X362075Y422110D01*
X359275Y420950D01*
X359274Y420949D01*
X359273Y420949D01*
X359154Y420878D01*
X359031Y420805D01*
X359030Y420804D01*
X359028Y420803D01*
X358931Y420700D01*
X358835Y420599D01*
X358835Y420597D01*
X358834Y420596D01*
X358769Y420470D01*
X358705Y420346D01*
X358705Y420344D01*
X358704Y420343D01*
X358702Y420328D01*
X358650Y420067D01*
X358653Y420037D01*
X358649Y420012D01*
X358649Y354337D01*
X301796Y297485D01*
X301744Y297415D01*
X301684Y297351D01*
X301658Y297301D01*
X301625Y297257D01*
X301594Y297176D01*
X301554Y297098D01*
X301546Y297050D01*
X301524Y296992D01*
X301512Y296844D01*
X301499Y296767D01*
X301499Y282861D01*
X301503Y282832D01*
X301500Y282803D01*
X301523Y282692D01*
X301539Y282580D01*
X301551Y282553D01*
X301556Y282524D01*
X301608Y282424D01*
X301655Y282320D01*
X301674Y282298D01*
X301687Y282272D01*
X301765Y282190D01*
X301838Y282103D01*
X301863Y282087D01*
X301883Y282066D01*
X301981Y282009D01*
X302075Y281946D01*
X302103Y281937D01*
X302128Y281922D01*
X302238Y281894D01*
X302346Y281860D01*
X302376Y281859D01*
X302404Y281852D01*
X302517Y281856D01*
X302630Y281853D01*
X302659Y281860D01*
X302688Y281861D01*
X302796Y281896D01*
X302905Y281925D01*
X302931Y281940D01*
X302959Y281949D01*
X303022Y281994D01*
X303150Y282070D01*
X303193Y282115D01*
X303232Y282143D01*
X377654Y356565D01*
X377706Y356635D01*
X377766Y356699D01*
X377792Y356749D01*
X377825Y356793D01*
X377856Y356874D01*
X377896Y356952D01*
X377904Y357000D01*
X377926Y357058D01*
X377938Y357206D01*
X377951Y357283D01*
X377951Y420012D01*
X377951Y420013D01*
X377951Y420015D01*
X377931Y420155D01*
X377911Y420293D01*
X377911Y420295D01*
X377911Y420296D01*
X377854Y420422D01*
X377795Y420553D01*
X377794Y420554D01*
X377793Y420555D01*
X377703Y420662D01*
X377612Y420770D01*
X377610Y420771D01*
X377609Y420772D01*
X377596Y420780D01*
X377375Y420927D01*
X377346Y420937D01*
X377325Y420950D01*
X374525Y422110D01*
X371310Y425325D01*
X369569Y429526D01*
X369569Y434074D01*
X371310Y438275D01*
X374525Y441490D01*
X378726Y443231D01*
X383274Y443231D01*
X387475Y441490D01*
X390690Y438275D01*
X392431Y434074D01*
X392431Y429526D01*
X390690Y425325D01*
X387475Y422110D01*
X384675Y420950D01*
X384674Y420949D01*
X384673Y420949D01*
X384554Y420878D01*
X384431Y420805D01*
X384430Y420804D01*
X384428Y420803D01*
X384331Y420700D01*
X384235Y420599D01*
X384235Y420597D01*
X384234Y420596D01*
X384169Y420470D01*
X384105Y420346D01*
X384105Y420344D01*
X384104Y420343D01*
X384102Y420328D01*
X384050Y420067D01*
X384053Y420037D01*
X384049Y420012D01*
X384049Y354337D01*
X308146Y278435D01*
X308094Y278365D01*
X308034Y278301D01*
X308008Y278251D01*
X307975Y278207D01*
X307944Y278126D01*
X307904Y278048D01*
X307896Y278000D01*
X307874Y277942D01*
X307867Y277854D01*
X307863Y277841D01*
X307861Y277793D01*
X307849Y277717D01*
X307849Y192183D01*
X307861Y192097D01*
X307864Y192009D01*
X307881Y191957D01*
X307889Y191902D01*
X307924Y191822D01*
X307951Y191739D01*
X307979Y191700D01*
X308005Y191642D01*
X308101Y191529D01*
X308146Y191465D01*
X318465Y181146D01*
X318535Y181094D01*
X318599Y181034D01*
X318649Y181008D01*
X318693Y180975D01*
X318774Y180944D01*
X318852Y180904D01*
X318900Y180896D01*
X318958Y180874D01*
X319106Y180862D01*
X319183Y180849D01*
X319787Y180849D01*
X319788Y180849D01*
X319790Y180849D01*
X319930Y180869D01*
X320068Y180889D01*
X320070Y180889D01*
X320071Y180889D01*
X320199Y180947D01*
X320327Y181005D01*
X320329Y181006D01*
X320330Y181007D01*
X320437Y181098D01*
X320544Y181188D01*
X320545Y181190D01*
X320547Y181191D01*
X320555Y181204D01*
X320702Y181425D01*
X320711Y181454D01*
X320725Y181475D01*
X321586Y183556D01*
X324444Y186414D01*
X328179Y187961D01*
X332221Y187961D01*
X335956Y186414D01*
X338814Y183556D01*
X340361Y179821D01*
X340361Y175779D01*
X338814Y172044D01*
X335956Y169186D01*
X332221Y167639D01*
X328179Y167639D01*
X324444Y169186D01*
X321586Y172044D01*
X320725Y174125D01*
X320724Y174126D01*
X320723Y174127D01*
X320652Y174248D01*
X320580Y174369D01*
X320579Y174370D01*
X320578Y174372D01*
X320474Y174469D01*
X320373Y174565D01*
X320372Y174565D01*
X320371Y174566D01*
X320245Y174631D01*
X320121Y174695D01*
X320119Y174695D01*
X320118Y174696D01*
X320103Y174698D01*
X319842Y174750D01*
X319811Y174747D01*
X319787Y174751D01*
X316237Y174751D01*
X303835Y187154D01*
X303232Y187757D01*
X303208Y187774D01*
X303189Y187797D01*
X303095Y187859D01*
X303005Y187927D01*
X302977Y187938D01*
X302953Y187954D01*
X302845Y187988D01*
X302739Y188029D01*
X302710Y188031D01*
X302682Y188040D01*
X302568Y188043D01*
X302456Y188052D01*
X302427Y188047D01*
X302398Y188047D01*
X302288Y188019D01*
X302177Y187996D01*
X302151Y187983D01*
X302123Y187975D01*
X302025Y187918D01*
X301925Y187865D01*
X301903Y187845D01*
X301878Y187830D01*
X301801Y187748D01*
X301719Y187670D01*
X301704Y187644D01*
X301684Y187623D01*
X301632Y187522D01*
X301575Y187424D01*
X301568Y187396D01*
X301554Y187370D01*
X301541Y187292D01*
X301505Y187149D01*
X301507Y187086D01*
X301499Y187039D01*
X301499Y185833D01*
X301511Y185747D01*
X301514Y185659D01*
X301531Y185607D01*
X301539Y185552D01*
X301574Y185472D01*
X301601Y185389D01*
X301629Y185350D01*
X301655Y185292D01*
X301751Y185179D01*
X301796Y185115D01*
X324815Y162096D01*
X324885Y162044D01*
X324949Y161984D01*
X324999Y161958D01*
X325043Y161925D01*
X325124Y161894D01*
X325202Y161854D01*
X325250Y161846D01*
X325308Y161824D01*
X325456Y161812D01*
X325533Y161799D01*
X347567Y161799D01*
X347653Y161811D01*
X347741Y161814D01*
X347793Y161831D01*
X347848Y161839D01*
X347928Y161874D01*
X348011Y161901D01*
X348050Y161929D01*
X348108Y161955D01*
X348221Y162051D01*
X348285Y162096D01*
X352254Y166065D01*
X352306Y166135D01*
X352366Y166199D01*
X352392Y166249D01*
X352425Y166293D01*
X352456Y166374D01*
X352496Y166452D01*
X352504Y166500D01*
X352526Y166558D01*
X352538Y166706D01*
X352551Y166783D01*
X352551Y167387D01*
X352551Y167388D01*
X352551Y167390D01*
X352531Y167530D01*
X352511Y167668D01*
X352511Y167670D01*
X352511Y167671D01*
X352456Y167793D01*
X352395Y167927D01*
X352394Y167929D01*
X352393Y167930D01*
X352302Y168037D01*
X352212Y168144D01*
X352210Y168145D01*
X352209Y168147D01*
X352196Y168155D01*
X351975Y168302D01*
X351946Y168311D01*
X351925Y168325D01*
X349844Y169186D01*
X346986Y172044D01*
X345439Y175779D01*
X345439Y179821D01*
X346986Y183556D01*
X349844Y186414D01*
X353579Y187961D01*
X357621Y187961D01*
X361356Y186414D01*
X364214Y183556D01*
X365761Y179821D01*
X365761Y175779D01*
X364214Y172044D01*
X361356Y169186D01*
X359275Y168325D01*
X359274Y168324D01*
X359273Y168323D01*
X359152Y168252D01*
X359031Y168180D01*
X359030Y168179D01*
X359028Y168178D01*
X358931Y168074D01*
X358835Y167973D01*
X358835Y167972D01*
X358834Y167971D01*
X358769Y167845D01*
X358705Y167721D01*
X358705Y167719D01*
X358704Y167718D01*
X358702Y167703D01*
X358650Y167442D01*
X358653Y167411D01*
X358649Y167387D01*
X358649Y163837D01*
X352596Y157785D01*
X351993Y157182D01*
X351976Y157158D01*
X351953Y157139D01*
X351891Y157045D01*
X351823Y156955D01*
X351812Y156927D01*
X351796Y156903D01*
X351762Y156795D01*
X351721Y156689D01*
X351719Y156660D01*
X351710Y156632D01*
X351707Y156518D01*
X351698Y156406D01*
X351703Y156377D01*
X351703Y156348D01*
X351731Y156238D01*
X351754Y156127D01*
X351767Y156101D01*
X351775Y156073D01*
X351832Y155975D01*
X351885Y155875D01*
X351905Y155853D01*
X351920Y155828D01*
X352002Y155751D01*
X352080Y155669D01*
X352106Y155654D01*
X352127Y155634D01*
X352228Y155582D01*
X352326Y155525D01*
X352354Y155518D01*
X352380Y155504D01*
X352458Y155491D01*
X352601Y155455D01*
X352664Y155457D01*
X352711Y155449D01*
X366617Y155449D01*
X366703Y155461D01*
X366791Y155464D01*
X366843Y155481D01*
X366898Y155489D01*
X366978Y155524D01*
X367061Y155551D01*
X367100Y155579D01*
X367158Y155605D01*
X367271Y155701D01*
X367335Y155746D01*
X377654Y166065D01*
X377706Y166135D01*
X377766Y166199D01*
X377792Y166249D01*
X377825Y166293D01*
X377856Y166374D01*
X377896Y166452D01*
X377904Y166500D01*
X377926Y166558D01*
X377938Y166706D01*
X377951Y166783D01*
X377951Y167387D01*
X377951Y167388D01*
X377951Y167390D01*
X377931Y167530D01*
X377911Y167668D01*
X377911Y167670D01*
X377911Y167671D01*
X377856Y167793D01*
X377795Y167927D01*
X377794Y167929D01*
X377793Y167930D01*
X377702Y168037D01*
X377612Y168144D01*
X377610Y168145D01*
X377609Y168147D01*
X377596Y168155D01*
X377375Y168302D01*
X377346Y168311D01*
X377325Y168325D01*
X375244Y169186D01*
X372386Y172044D01*
X370839Y175779D01*
X370839Y179821D01*
X372386Y183556D01*
X375244Y186414D01*
X378979Y187961D01*
X383021Y187961D01*
X386756Y186414D01*
X389614Y183556D01*
X391161Y179821D01*
X391161Y175779D01*
X389614Y172044D01*
X386756Y169186D01*
X384675Y168325D01*
X384674Y168324D01*
X384673Y168323D01*
X384552Y168252D01*
X384431Y168180D01*
X384430Y168179D01*
X384428Y168178D01*
X384331Y168074D01*
X384235Y167973D01*
X384235Y167972D01*
X384234Y167971D01*
X384169Y167845D01*
X384105Y167721D01*
X384105Y167719D01*
X384104Y167718D01*
X384102Y167703D01*
X384050Y167442D01*
X384053Y167411D01*
X384049Y167387D01*
X384049Y163837D01*
X371646Y151435D01*
X371043Y150832D01*
X371026Y150808D01*
X371003Y150789D01*
X370941Y150695D01*
X370873Y150605D01*
X370862Y150577D01*
X370846Y150553D01*
X370812Y150445D01*
X370771Y150339D01*
X370769Y150310D01*
X370760Y150282D01*
X370757Y150168D01*
X370748Y150056D01*
X370753Y150027D01*
X370753Y149998D01*
X370781Y149888D01*
X370804Y149777D01*
X370817Y149751D01*
X370825Y149723D01*
X370882Y149625D01*
X370935Y149525D01*
X370955Y149503D01*
X370970Y149478D01*
X371052Y149401D01*
X371130Y149319D01*
X371156Y149304D01*
X371177Y149284D01*
X371278Y149232D01*
X371376Y149175D01*
X371404Y149168D01*
X371430Y149154D01*
X371508Y149141D01*
X371651Y149105D01*
X371714Y149107D01*
X371761Y149099D01*
X385667Y149099D01*
X385753Y149111D01*
X385841Y149114D01*
X385893Y149131D01*
X385948Y149139D01*
X386028Y149174D01*
X386111Y149201D01*
X386150Y149229D01*
X386208Y149255D01*
X386321Y149351D01*
X386385Y149396D01*
X403054Y166065D01*
X403106Y166135D01*
X403166Y166199D01*
X403192Y166249D01*
X403225Y166293D01*
X403256Y166374D01*
X403296Y166452D01*
X403304Y166500D01*
X403326Y166558D01*
X403338Y166706D01*
X403351Y166783D01*
X403351Y167387D01*
X403351Y167388D01*
X403351Y167390D01*
X403331Y167530D01*
X403311Y167668D01*
X403311Y167670D01*
X403311Y167671D01*
X403256Y167793D01*
X403195Y167927D01*
X403194Y167929D01*
X403193Y167930D01*
X403102Y168037D01*
X403012Y168144D01*
X403010Y168145D01*
X403009Y168147D01*
X402996Y168155D01*
X402775Y168302D01*
X402746Y168311D01*
X402725Y168325D01*
X400644Y169186D01*
X397786Y172044D01*
X396239Y175779D01*
X396239Y179821D01*
X397786Y183556D01*
X400644Y186414D01*
X404379Y187961D01*
X408421Y187961D01*
X412156Y186414D01*
X415014Y183556D01*
X416561Y179821D01*
X416561Y175779D01*
X415014Y172044D01*
X412156Y169186D01*
X410075Y168325D01*
X410074Y168324D01*
X410073Y168323D01*
X409952Y168252D01*
X409831Y168180D01*
X409830Y168179D01*
X409828Y168178D01*
X409731Y168074D01*
X409635Y167973D01*
X409635Y167972D01*
X409634Y167971D01*
X409569Y167845D01*
X409505Y167721D01*
X409505Y167719D01*
X409504Y167718D01*
X409502Y167703D01*
X409450Y167442D01*
X409453Y167411D01*
X409449Y167387D01*
X409449Y163837D01*
X390696Y145085D01*
X390093Y144482D01*
X390076Y144458D01*
X390053Y144439D01*
X389991Y144345D01*
X389923Y144255D01*
X389912Y144227D01*
X389896Y144203D01*
X389862Y144095D01*
X389821Y143989D01*
X389819Y143960D01*
X389810Y143932D01*
X389807Y143818D01*
X389798Y143706D01*
X389803Y143677D01*
X389803Y143648D01*
X389831Y143538D01*
X389854Y143427D01*
X389867Y143401D01*
X389875Y143373D01*
X389932Y143275D01*
X389985Y143175D01*
X390005Y143153D01*
X390020Y143128D01*
X390102Y143051D01*
X390180Y142969D01*
X390206Y142954D01*
X390227Y142934D01*
X390328Y142882D01*
X390426Y142825D01*
X390454Y142818D01*
X390480Y142804D01*
X390558Y142791D01*
X390701Y142755D01*
X390764Y142757D01*
X390811Y142749D01*
X404717Y142749D01*
X404803Y142761D01*
X404891Y142764D01*
X404943Y142781D01*
X404998Y142789D01*
X405078Y142824D01*
X405161Y142851D01*
X405200Y142879D01*
X405258Y142905D01*
X405371Y143001D01*
X405435Y143046D01*
X428454Y166065D01*
X428506Y166135D01*
X428566Y166199D01*
X428592Y166249D01*
X428625Y166293D01*
X428656Y166374D01*
X428696Y166452D01*
X428704Y166500D01*
X428726Y166558D01*
X428738Y166706D01*
X428751Y166783D01*
X428751Y167387D01*
X428751Y167388D01*
X428751Y167390D01*
X428731Y167530D01*
X428711Y167668D01*
X428711Y167670D01*
X428711Y167671D01*
X428656Y167793D01*
X428595Y167927D01*
X428594Y167929D01*
X428593Y167930D01*
X428502Y168037D01*
X428412Y168144D01*
X428410Y168145D01*
X428409Y168147D01*
X428396Y168155D01*
X428175Y168302D01*
X428146Y168311D01*
X428125Y168325D01*
X426044Y169186D01*
X423186Y172044D01*
X421639Y175779D01*
X421639Y179821D01*
X423186Y183556D01*
X426044Y186414D01*
X429779Y187961D01*
X433821Y187961D01*
X437556Y186414D01*
X440414Y183556D01*
X441961Y179821D01*
X441961Y175779D01*
X440414Y172044D01*
X437556Y169186D01*
X435475Y168325D01*
X435474Y168324D01*
X435473Y168323D01*
X435352Y168252D01*
X435231Y168180D01*
X435230Y168179D01*
X435228Y168178D01*
X435131Y168074D01*
X435035Y167973D01*
X435035Y167972D01*
X435034Y167971D01*
X434969Y167845D01*
X434905Y167721D01*
X434905Y167719D01*
X434904Y167718D01*
X434902Y167703D01*
X434850Y167442D01*
X434853Y167411D01*
X434849Y167387D01*
X434849Y163837D01*
X407663Y136651D01*
X303537Y136651D01*
G37*
%LPD*%
%LPC*%
G36*
X353579Y243839D02*
X353579Y243839D01*
X349844Y245386D01*
X346986Y248244D01*
X345439Y251979D01*
X345439Y256021D01*
X346986Y259756D01*
X349844Y262614D01*
X351925Y263475D01*
X351926Y263476D01*
X351927Y263477D01*
X352048Y263548D01*
X352169Y263620D01*
X352170Y263621D01*
X352172Y263622D01*
X352269Y263726D01*
X352365Y263827D01*
X352365Y263828D01*
X352366Y263829D01*
X352429Y263951D01*
X352495Y264079D01*
X352495Y264081D01*
X352496Y264082D01*
X352498Y264097D01*
X352550Y264358D01*
X352547Y264389D01*
X352551Y264413D01*
X352551Y280663D01*
X428454Y356565D01*
X428506Y356635D01*
X428566Y356699D01*
X428592Y356749D01*
X428625Y356793D01*
X428656Y356874D01*
X428696Y356952D01*
X428704Y357000D01*
X428726Y357058D01*
X428738Y357206D01*
X428751Y357283D01*
X428751Y420012D01*
X428751Y420013D01*
X428751Y420015D01*
X428731Y420155D01*
X428711Y420293D01*
X428711Y420295D01*
X428711Y420296D01*
X428654Y420422D01*
X428595Y420553D01*
X428594Y420554D01*
X428593Y420555D01*
X428503Y420662D01*
X428412Y420770D01*
X428410Y420771D01*
X428409Y420772D01*
X428396Y420780D01*
X428175Y420927D01*
X428146Y420937D01*
X428125Y420950D01*
X425325Y422110D01*
X422110Y425325D01*
X420369Y429526D01*
X420369Y434074D01*
X422110Y438275D01*
X425325Y441490D01*
X429526Y443231D01*
X434074Y443231D01*
X438275Y441490D01*
X441490Y438275D01*
X443231Y434074D01*
X443231Y429526D01*
X441490Y425325D01*
X438275Y422110D01*
X435475Y420950D01*
X435474Y420949D01*
X435473Y420949D01*
X435354Y420878D01*
X435231Y420805D01*
X435230Y420804D01*
X435228Y420803D01*
X435131Y420700D01*
X435035Y420599D01*
X435035Y420597D01*
X435034Y420596D01*
X434969Y420470D01*
X434905Y420346D01*
X434905Y420344D01*
X434904Y420343D01*
X434902Y420328D01*
X434850Y420067D01*
X434853Y420037D01*
X434849Y420012D01*
X434849Y354337D01*
X358946Y278435D01*
X358894Y278365D01*
X358834Y278301D01*
X358808Y278251D01*
X358775Y278207D01*
X358744Y278126D01*
X358704Y278048D01*
X358696Y278000D01*
X358674Y277942D01*
X358667Y277854D01*
X358663Y277841D01*
X358661Y277793D01*
X358649Y277717D01*
X358649Y264413D01*
X358649Y264412D01*
X358649Y264410D01*
X358656Y264363D01*
X358655Y264359D01*
X358657Y264353D01*
X358669Y264268D01*
X358689Y264132D01*
X358689Y264130D01*
X358689Y264129D01*
X358747Y264001D01*
X358805Y263873D01*
X358806Y263871D01*
X358807Y263870D01*
X358898Y263763D01*
X358988Y263656D01*
X358990Y263655D01*
X358991Y263653D01*
X359004Y263645D01*
X359225Y263498D01*
X359254Y263489D01*
X359275Y263475D01*
X361356Y262614D01*
X364214Y259756D01*
X365761Y256021D01*
X365761Y251979D01*
X364214Y248244D01*
X361356Y245386D01*
X357621Y243839D01*
X353579Y243839D01*
G37*
%LPD*%
%LPC*%
G36*
X404379Y243839D02*
X404379Y243839D01*
X400644Y245386D01*
X397786Y248244D01*
X396239Y251979D01*
X396239Y256021D01*
X397786Y259756D01*
X400644Y262614D01*
X402725Y263475D01*
X402726Y263476D01*
X402727Y263477D01*
X402848Y263548D01*
X402969Y263620D01*
X402970Y263621D01*
X402972Y263622D01*
X403069Y263726D01*
X403165Y263827D01*
X403165Y263828D01*
X403166Y263829D01*
X403229Y263951D01*
X403295Y264079D01*
X403295Y264081D01*
X403296Y264082D01*
X403298Y264097D01*
X403350Y264358D01*
X403347Y264389D01*
X403351Y264413D01*
X403351Y280663D01*
X479254Y356565D01*
X479306Y356635D01*
X479366Y356699D01*
X479392Y356749D01*
X479425Y356793D01*
X479456Y356874D01*
X479496Y356952D01*
X479504Y357000D01*
X479526Y357058D01*
X479538Y357206D01*
X479551Y357283D01*
X479551Y420012D01*
X479551Y420013D01*
X479551Y420015D01*
X479531Y420155D01*
X479511Y420293D01*
X479511Y420295D01*
X479511Y420296D01*
X479454Y420422D01*
X479395Y420553D01*
X479394Y420554D01*
X479393Y420555D01*
X479303Y420662D01*
X479212Y420770D01*
X479210Y420771D01*
X479209Y420772D01*
X479196Y420780D01*
X478975Y420927D01*
X478946Y420937D01*
X478925Y420950D01*
X476125Y422110D01*
X472910Y425325D01*
X471169Y429526D01*
X471169Y434074D01*
X472910Y438275D01*
X476125Y441490D01*
X480326Y443231D01*
X484874Y443231D01*
X489075Y441490D01*
X492290Y438275D01*
X494031Y434074D01*
X494031Y429526D01*
X492290Y425325D01*
X489075Y422110D01*
X486275Y420950D01*
X486274Y420949D01*
X486273Y420949D01*
X486154Y420878D01*
X486031Y420805D01*
X486030Y420804D01*
X486028Y420803D01*
X485931Y420700D01*
X485835Y420599D01*
X485835Y420597D01*
X485834Y420596D01*
X485769Y420470D01*
X485705Y420346D01*
X485705Y420344D01*
X485704Y420343D01*
X485702Y420328D01*
X485650Y420067D01*
X485653Y420037D01*
X485649Y420012D01*
X485649Y354337D01*
X409746Y278435D01*
X409694Y278365D01*
X409634Y278301D01*
X409608Y278251D01*
X409575Y278207D01*
X409544Y278126D01*
X409504Y278048D01*
X409496Y278000D01*
X409474Y277942D01*
X409467Y277854D01*
X409463Y277841D01*
X409461Y277793D01*
X409449Y277717D01*
X409449Y264413D01*
X409449Y264412D01*
X409449Y264410D01*
X409456Y264363D01*
X409455Y264359D01*
X409457Y264353D01*
X409469Y264268D01*
X409489Y264132D01*
X409489Y264130D01*
X409489Y264129D01*
X409547Y264001D01*
X409605Y263873D01*
X409606Y263871D01*
X409607Y263870D01*
X409698Y263763D01*
X409788Y263656D01*
X409790Y263655D01*
X409791Y263653D01*
X409804Y263645D01*
X410025Y263498D01*
X410054Y263489D01*
X410075Y263475D01*
X412156Y262614D01*
X415014Y259756D01*
X416561Y256021D01*
X416561Y251979D01*
X415014Y248244D01*
X412156Y245386D01*
X408421Y243839D01*
X404379Y243839D01*
G37*
%LPD*%
%LPC*%
G36*
X378979Y243839D02*
X378979Y243839D01*
X375244Y245386D01*
X372386Y248244D01*
X370839Y251979D01*
X370839Y256021D01*
X372386Y259756D01*
X375244Y262614D01*
X377325Y263475D01*
X377326Y263476D01*
X377327Y263477D01*
X377448Y263548D01*
X377569Y263620D01*
X377570Y263621D01*
X377572Y263622D01*
X377669Y263726D01*
X377765Y263827D01*
X377765Y263828D01*
X377766Y263829D01*
X377829Y263951D01*
X377895Y264079D01*
X377895Y264081D01*
X377896Y264082D01*
X377898Y264097D01*
X377950Y264358D01*
X377947Y264389D01*
X377951Y264413D01*
X377951Y280663D01*
X453854Y356565D01*
X453906Y356635D01*
X453966Y356699D01*
X453992Y356749D01*
X454025Y356793D01*
X454056Y356874D01*
X454096Y356952D01*
X454104Y357000D01*
X454126Y357058D01*
X454138Y357206D01*
X454151Y357283D01*
X454151Y420012D01*
X454151Y420013D01*
X454151Y420015D01*
X454131Y420155D01*
X454111Y420293D01*
X454111Y420295D01*
X454111Y420296D01*
X454054Y420422D01*
X453995Y420553D01*
X453994Y420554D01*
X453993Y420555D01*
X453903Y420662D01*
X453812Y420770D01*
X453810Y420771D01*
X453809Y420772D01*
X453796Y420780D01*
X453575Y420927D01*
X453546Y420937D01*
X453525Y420950D01*
X450725Y422110D01*
X447510Y425325D01*
X445769Y429526D01*
X445769Y434074D01*
X447510Y438275D01*
X450725Y441490D01*
X454926Y443231D01*
X459474Y443231D01*
X463675Y441490D01*
X466890Y438275D01*
X468631Y434074D01*
X468631Y429526D01*
X466890Y425325D01*
X463675Y422110D01*
X460875Y420950D01*
X460874Y420949D01*
X460873Y420949D01*
X460754Y420878D01*
X460631Y420805D01*
X460630Y420804D01*
X460628Y420803D01*
X460531Y420700D01*
X460435Y420599D01*
X460435Y420597D01*
X460434Y420596D01*
X460369Y420470D01*
X460305Y420346D01*
X460305Y420344D01*
X460304Y420343D01*
X460302Y420328D01*
X460250Y420067D01*
X460253Y420037D01*
X460249Y420012D01*
X460249Y354337D01*
X384346Y278435D01*
X384294Y278365D01*
X384234Y278301D01*
X384208Y278251D01*
X384175Y278207D01*
X384144Y278126D01*
X384104Y278048D01*
X384096Y278000D01*
X384074Y277942D01*
X384067Y277854D01*
X384063Y277841D01*
X384061Y277793D01*
X384049Y277717D01*
X384049Y264413D01*
X384049Y264412D01*
X384049Y264410D01*
X384056Y264363D01*
X384055Y264359D01*
X384057Y264353D01*
X384069Y264268D01*
X384089Y264132D01*
X384089Y264130D01*
X384089Y264129D01*
X384147Y264001D01*
X384205Y263873D01*
X384206Y263871D01*
X384207Y263870D01*
X384298Y263763D01*
X384388Y263656D01*
X384390Y263655D01*
X384391Y263653D01*
X384404Y263645D01*
X384625Y263498D01*
X384654Y263489D01*
X384675Y263475D01*
X386756Y262614D01*
X389614Y259756D01*
X391161Y256021D01*
X391161Y251979D01*
X389614Y248244D01*
X386756Y245386D01*
X383021Y243839D01*
X378979Y243839D01*
G37*
%LPD*%
%LPC*%
G36*
X328179Y243839D02*
X328179Y243839D01*
X324444Y245386D01*
X321586Y248244D01*
X320039Y251979D01*
X320039Y256021D01*
X321586Y259756D01*
X324444Y262614D01*
X326525Y263475D01*
X326526Y263476D01*
X326527Y263477D01*
X326648Y263548D01*
X326769Y263620D01*
X326770Y263621D01*
X326772Y263622D01*
X326869Y263726D01*
X326965Y263827D01*
X326965Y263828D01*
X326966Y263829D01*
X327029Y263951D01*
X327095Y264079D01*
X327095Y264081D01*
X327096Y264082D01*
X327098Y264097D01*
X327150Y264358D01*
X327147Y264389D01*
X327151Y264413D01*
X327151Y280663D01*
X403054Y356565D01*
X403106Y356635D01*
X403166Y356699D01*
X403192Y356749D01*
X403225Y356793D01*
X403256Y356874D01*
X403296Y356952D01*
X403304Y357000D01*
X403326Y357058D01*
X403338Y357206D01*
X403351Y357283D01*
X403351Y420012D01*
X403351Y420013D01*
X403351Y420015D01*
X403331Y420155D01*
X403311Y420293D01*
X403311Y420295D01*
X403311Y420296D01*
X403254Y420422D01*
X403195Y420553D01*
X403194Y420554D01*
X403193Y420555D01*
X403103Y420662D01*
X403012Y420770D01*
X403010Y420771D01*
X403009Y420772D01*
X402996Y420780D01*
X402775Y420927D01*
X402746Y420937D01*
X402725Y420950D01*
X399925Y422110D01*
X396710Y425325D01*
X394969Y429526D01*
X394969Y434074D01*
X396710Y438275D01*
X399925Y441490D01*
X404126Y443231D01*
X408674Y443231D01*
X412875Y441490D01*
X416090Y438275D01*
X417831Y434074D01*
X417831Y429526D01*
X416090Y425325D01*
X412875Y422110D01*
X410075Y420950D01*
X410074Y420949D01*
X410073Y420949D01*
X409954Y420878D01*
X409831Y420805D01*
X409830Y420804D01*
X409828Y420803D01*
X409731Y420700D01*
X409635Y420599D01*
X409635Y420597D01*
X409634Y420596D01*
X409569Y420470D01*
X409505Y420346D01*
X409505Y420344D01*
X409504Y420343D01*
X409502Y420328D01*
X409450Y420067D01*
X409453Y420037D01*
X409449Y420012D01*
X409449Y354337D01*
X333546Y278435D01*
X333494Y278365D01*
X333434Y278301D01*
X333408Y278251D01*
X333375Y278207D01*
X333344Y278126D01*
X333304Y278048D01*
X333296Y278000D01*
X333274Y277942D01*
X333267Y277854D01*
X333263Y277841D01*
X333261Y277793D01*
X333249Y277717D01*
X333249Y264413D01*
X333249Y264412D01*
X333249Y264410D01*
X333256Y264363D01*
X333255Y264359D01*
X333257Y264353D01*
X333269Y264268D01*
X333289Y264132D01*
X333289Y264130D01*
X333289Y264129D01*
X333347Y264001D01*
X333405Y263873D01*
X333406Y263871D01*
X333407Y263870D01*
X333498Y263763D01*
X333588Y263656D01*
X333590Y263655D01*
X333591Y263653D01*
X333604Y263645D01*
X333825Y263498D01*
X333854Y263489D01*
X333875Y263475D01*
X335956Y262614D01*
X338814Y259756D01*
X340361Y256021D01*
X340361Y251979D01*
X338814Y248244D01*
X335956Y245386D01*
X332221Y243839D01*
X328179Y243839D01*
G37*
%LPD*%
%LPC*%
G36*
X556779Y243839D02*
X556779Y243839D01*
X553044Y245386D01*
X550186Y248244D01*
X548639Y251979D01*
X548639Y256021D01*
X550186Y259756D01*
X553044Y262614D01*
X555125Y263475D01*
X555126Y263476D01*
X555127Y263477D01*
X555246Y263547D01*
X555369Y263620D01*
X555370Y263621D01*
X555372Y263622D01*
X555469Y263726D01*
X555565Y263827D01*
X555565Y263828D01*
X555566Y263829D01*
X555631Y263955D01*
X555695Y264079D01*
X555695Y264081D01*
X555696Y264082D01*
X555698Y264097D01*
X555750Y264358D01*
X555747Y264389D01*
X555751Y264413D01*
X555751Y328517D01*
X555739Y328603D01*
X555736Y328691D01*
X555719Y328743D01*
X555711Y328798D01*
X555676Y328878D01*
X555649Y328961D01*
X555621Y329000D01*
X555595Y329058D01*
X555499Y329171D01*
X555454Y329235D01*
X530351Y354337D01*
X530351Y420012D01*
X530351Y420013D01*
X530351Y420015D01*
X530331Y420155D01*
X530311Y420293D01*
X530311Y420295D01*
X530311Y420296D01*
X530254Y420422D01*
X530195Y420553D01*
X530194Y420554D01*
X530193Y420555D01*
X530103Y420662D01*
X530012Y420770D01*
X530010Y420771D01*
X530009Y420772D01*
X529996Y420780D01*
X529775Y420927D01*
X529746Y420937D01*
X529725Y420950D01*
X526925Y422110D01*
X523710Y425325D01*
X521969Y429526D01*
X521969Y434074D01*
X523710Y438275D01*
X526925Y441490D01*
X531126Y443231D01*
X535674Y443231D01*
X539875Y441490D01*
X543090Y438275D01*
X544831Y434074D01*
X544831Y429526D01*
X543090Y425325D01*
X539875Y422110D01*
X537075Y420950D01*
X537074Y420949D01*
X537073Y420949D01*
X536954Y420878D01*
X536831Y420805D01*
X536830Y420804D01*
X536828Y420803D01*
X536731Y420700D01*
X536635Y420599D01*
X536635Y420597D01*
X536634Y420596D01*
X536569Y420470D01*
X536505Y420346D01*
X536505Y420344D01*
X536504Y420343D01*
X536502Y420328D01*
X536450Y420067D01*
X536453Y420037D01*
X536449Y420012D01*
X536449Y357283D01*
X536461Y357197D01*
X536464Y357109D01*
X536481Y357057D01*
X536489Y357002D01*
X536524Y356922D01*
X536551Y356839D01*
X536579Y356800D01*
X536605Y356742D01*
X536701Y356629D01*
X536746Y356565D01*
X561849Y331463D01*
X561849Y264413D01*
X561849Y264412D01*
X561849Y264410D01*
X561856Y264363D01*
X561855Y264359D01*
X561857Y264352D01*
X561869Y264268D01*
X561889Y264132D01*
X561889Y264131D01*
X561889Y264129D01*
X561946Y264003D01*
X562005Y263873D01*
X562006Y263871D01*
X562007Y263870D01*
X562098Y263763D01*
X562188Y263656D01*
X562190Y263655D01*
X562191Y263653D01*
X562204Y263645D01*
X562425Y263498D01*
X562454Y263489D01*
X562475Y263475D01*
X564556Y262614D01*
X567414Y259756D01*
X568961Y256021D01*
X568961Y251979D01*
X567414Y248244D01*
X564556Y245386D01*
X560821Y243839D01*
X556779Y243839D01*
G37*
%LPD*%
%LPC*%
G36*
X531379Y243839D02*
X531379Y243839D01*
X527644Y245386D01*
X524786Y248244D01*
X523239Y251979D01*
X523239Y256021D01*
X524786Y259756D01*
X527644Y262614D01*
X529725Y263475D01*
X529726Y263476D01*
X529727Y263477D01*
X529846Y263547D01*
X529969Y263620D01*
X529970Y263621D01*
X529972Y263622D01*
X530069Y263726D01*
X530165Y263827D01*
X530165Y263828D01*
X530166Y263829D01*
X530231Y263955D01*
X530295Y264079D01*
X530295Y264081D01*
X530296Y264082D01*
X530298Y264097D01*
X530350Y264358D01*
X530347Y264389D01*
X530351Y264413D01*
X530351Y328517D01*
X530339Y328603D01*
X530336Y328691D01*
X530319Y328743D01*
X530311Y328798D01*
X530276Y328878D01*
X530249Y328961D01*
X530221Y329000D01*
X530195Y329058D01*
X530099Y329171D01*
X530054Y329235D01*
X504951Y354337D01*
X504951Y420012D01*
X504951Y420013D01*
X504951Y420015D01*
X504931Y420155D01*
X504911Y420293D01*
X504911Y420295D01*
X504911Y420296D01*
X504854Y420422D01*
X504795Y420553D01*
X504794Y420554D01*
X504793Y420555D01*
X504703Y420662D01*
X504612Y420770D01*
X504610Y420771D01*
X504609Y420772D01*
X504596Y420780D01*
X504375Y420927D01*
X504346Y420937D01*
X504325Y420950D01*
X501525Y422110D01*
X498310Y425325D01*
X496569Y429526D01*
X496569Y434074D01*
X498310Y438275D01*
X501525Y441490D01*
X505726Y443231D01*
X510274Y443231D01*
X514475Y441490D01*
X517690Y438275D01*
X519431Y434074D01*
X519431Y429526D01*
X517690Y425325D01*
X514475Y422110D01*
X511675Y420950D01*
X511674Y420949D01*
X511673Y420949D01*
X511554Y420878D01*
X511431Y420805D01*
X511430Y420804D01*
X511428Y420803D01*
X511331Y420700D01*
X511235Y420599D01*
X511235Y420597D01*
X511234Y420596D01*
X511169Y420470D01*
X511105Y420346D01*
X511105Y420344D01*
X511104Y420343D01*
X511102Y420328D01*
X511050Y420067D01*
X511053Y420037D01*
X511049Y420012D01*
X511049Y357283D01*
X511061Y357197D01*
X511064Y357109D01*
X511081Y357057D01*
X511089Y357002D01*
X511124Y356922D01*
X511151Y356839D01*
X511179Y356800D01*
X511205Y356742D01*
X511301Y356629D01*
X511346Y356565D01*
X536449Y331463D01*
X536449Y264413D01*
X536449Y264412D01*
X536449Y264410D01*
X536456Y264363D01*
X536455Y264359D01*
X536457Y264352D01*
X536469Y264268D01*
X536489Y264132D01*
X536489Y264131D01*
X536489Y264129D01*
X536546Y264003D01*
X536605Y263873D01*
X536606Y263871D01*
X536607Y263870D01*
X536698Y263763D01*
X536788Y263656D01*
X536790Y263655D01*
X536791Y263653D01*
X536804Y263645D01*
X537025Y263498D01*
X537054Y263489D01*
X537075Y263475D01*
X539156Y262614D01*
X542014Y259756D01*
X543561Y256021D01*
X543561Y251979D01*
X542014Y248244D01*
X539156Y245386D01*
X535421Y243839D01*
X531379Y243839D01*
G37*
%LPD*%
%LPC*%
G36*
X582179Y243839D02*
X582179Y243839D01*
X578444Y245386D01*
X575586Y248244D01*
X574039Y251979D01*
X574039Y256021D01*
X575586Y259756D01*
X578444Y262614D01*
X580525Y263475D01*
X580526Y263476D01*
X580527Y263477D01*
X580646Y263547D01*
X580769Y263620D01*
X580770Y263621D01*
X580772Y263622D01*
X580869Y263726D01*
X580965Y263827D01*
X580965Y263828D01*
X580966Y263829D01*
X581031Y263955D01*
X581095Y264079D01*
X581095Y264081D01*
X581096Y264082D01*
X581098Y264097D01*
X581150Y264358D01*
X581147Y264389D01*
X581151Y264413D01*
X581151Y328517D01*
X581139Y328603D01*
X581136Y328691D01*
X581119Y328743D01*
X581111Y328798D01*
X581076Y328878D01*
X581049Y328961D01*
X581021Y329000D01*
X580995Y329058D01*
X580899Y329171D01*
X580854Y329235D01*
X555751Y354337D01*
X555751Y420012D01*
X555751Y420013D01*
X555751Y420015D01*
X555731Y420155D01*
X555711Y420293D01*
X555711Y420295D01*
X555711Y420296D01*
X555654Y420422D01*
X555595Y420553D01*
X555594Y420554D01*
X555593Y420555D01*
X555503Y420662D01*
X555412Y420770D01*
X555410Y420771D01*
X555409Y420772D01*
X555396Y420780D01*
X555175Y420927D01*
X555146Y420937D01*
X555125Y420950D01*
X552325Y422110D01*
X549110Y425325D01*
X547369Y429526D01*
X547369Y434074D01*
X549110Y438275D01*
X552325Y441490D01*
X556526Y443231D01*
X561074Y443231D01*
X565275Y441490D01*
X568490Y438275D01*
X570231Y434074D01*
X570231Y429526D01*
X568490Y425325D01*
X565275Y422110D01*
X562475Y420950D01*
X562474Y420949D01*
X562473Y420949D01*
X562354Y420878D01*
X562231Y420805D01*
X562230Y420804D01*
X562228Y420803D01*
X562131Y420700D01*
X562035Y420599D01*
X562035Y420597D01*
X562034Y420596D01*
X561969Y420470D01*
X561905Y420346D01*
X561905Y420344D01*
X561904Y420343D01*
X561902Y420328D01*
X561850Y420067D01*
X561853Y420037D01*
X561849Y420012D01*
X561849Y357283D01*
X561861Y357197D01*
X561864Y357109D01*
X561881Y357057D01*
X561889Y357002D01*
X561924Y356922D01*
X561951Y356839D01*
X561979Y356800D01*
X562005Y356742D01*
X562101Y356629D01*
X562146Y356565D01*
X587249Y331463D01*
X587249Y264413D01*
X587249Y264412D01*
X587249Y264410D01*
X587256Y264363D01*
X587255Y264359D01*
X587257Y264352D01*
X587269Y264268D01*
X587289Y264132D01*
X587289Y264131D01*
X587289Y264129D01*
X587346Y264003D01*
X587405Y263873D01*
X587406Y263871D01*
X587407Y263870D01*
X587498Y263763D01*
X587588Y263656D01*
X587590Y263655D01*
X587591Y263653D01*
X587604Y263645D01*
X587825Y263498D01*
X587854Y263489D01*
X587875Y263475D01*
X589956Y262614D01*
X592814Y259756D01*
X594361Y256021D01*
X594361Y251979D01*
X592814Y248244D01*
X589956Y245386D01*
X586221Y243839D01*
X582179Y243839D01*
G37*
%LPD*%
%LPC*%
G36*
X34313Y19059D02*
X34313Y19059D01*
X27314Y21958D01*
X21958Y27314D01*
X19059Y34313D01*
X19059Y41887D01*
X21958Y48886D01*
X27314Y54242D01*
X34313Y57141D01*
X41887Y57141D01*
X48886Y54242D01*
X54242Y48886D01*
X57141Y41887D01*
X57141Y34313D01*
X54242Y27314D01*
X48886Y21958D01*
X41887Y19059D01*
X34313Y19059D01*
G37*
%LPD*%
%LPC*%
G36*
X656613Y19059D02*
X656613Y19059D01*
X649614Y21958D01*
X644258Y27314D01*
X641359Y34313D01*
X641359Y41887D01*
X644258Y48886D01*
X649614Y54242D01*
X656613Y57141D01*
X664187Y57141D01*
X671186Y54242D01*
X676542Y48886D01*
X679441Y41887D01*
X679441Y34313D01*
X676542Y27314D01*
X671186Y21958D01*
X664187Y19059D01*
X656613Y19059D01*
G37*
%LPD*%
%LPC*%
G36*
X656613Y425459D02*
X656613Y425459D01*
X649614Y428358D01*
X644258Y433714D01*
X641359Y440713D01*
X641359Y448287D01*
X644258Y455286D01*
X649614Y460642D01*
X656613Y463541D01*
X664187Y463541D01*
X671186Y460642D01*
X676542Y455286D01*
X679441Y448287D01*
X679441Y440713D01*
X676542Y433714D01*
X671186Y428358D01*
X664187Y425459D01*
X656613Y425459D01*
G37*
%LPD*%
%LPC*%
G36*
X34313Y425459D02*
X34313Y425459D01*
X27314Y428358D01*
X21958Y433714D01*
X19059Y440713D01*
X19059Y448287D01*
X21958Y455286D01*
X27314Y460642D01*
X34313Y463541D01*
X41887Y463541D01*
X48886Y460642D01*
X54242Y455286D01*
X57141Y448287D01*
X57141Y440713D01*
X54242Y433714D01*
X48886Y428358D01*
X41887Y425459D01*
X34313Y425459D01*
G37*
%LPD*%
%LPC*%
G36*
X252585Y246887D02*
X252585Y246887D01*
X249971Y247970D01*
X247970Y249971D01*
X246887Y252585D01*
X246887Y255415D01*
X247970Y258029D01*
X249573Y259632D01*
X249608Y259679D01*
X249651Y259719D01*
X249693Y259792D01*
X249744Y259859D01*
X249765Y259914D01*
X249794Y259964D01*
X249815Y260046D01*
X249845Y260125D01*
X249850Y260183D01*
X249865Y260240D01*
X249862Y260324D01*
X249869Y260408D01*
X249857Y260466D01*
X249856Y260524D01*
X249830Y260604D01*
X249813Y260687D01*
X249786Y260739D01*
X249768Y260795D01*
X249728Y260851D01*
X249682Y260939D01*
X249613Y261012D01*
X249573Y261068D01*
X247970Y262671D01*
X246887Y265285D01*
X246887Y268115D01*
X247970Y270729D01*
X249573Y272332D01*
X249608Y272379D01*
X249651Y272419D01*
X249693Y272492D01*
X249744Y272559D01*
X249765Y272614D01*
X249794Y272664D01*
X249815Y272746D01*
X249845Y272825D01*
X249850Y272883D01*
X249865Y272940D01*
X249862Y273024D01*
X249869Y273108D01*
X249857Y273166D01*
X249856Y273224D01*
X249830Y273304D01*
X249813Y273387D01*
X249786Y273439D01*
X249768Y273495D01*
X249728Y273551D01*
X249682Y273639D01*
X249613Y273712D01*
X249573Y273768D01*
X247970Y275371D01*
X246887Y277985D01*
X246887Y280815D01*
X247970Y283429D01*
X249971Y285430D01*
X252585Y286513D01*
X255415Y286513D01*
X258029Y285430D01*
X260030Y283429D01*
X261113Y280815D01*
X261113Y277985D01*
X260030Y275371D01*
X258427Y273768D01*
X258392Y273721D01*
X258349Y273681D01*
X258307Y273608D01*
X258256Y273541D01*
X258235Y273486D01*
X258206Y273436D01*
X258185Y273354D01*
X258155Y273275D01*
X258150Y273217D01*
X258135Y273160D01*
X258138Y273076D01*
X258131Y272992D01*
X258143Y272934D01*
X258144Y272876D01*
X258170Y272796D01*
X258187Y272713D01*
X258214Y272661D01*
X258232Y272605D01*
X258272Y272549D01*
X258318Y272461D01*
X258387Y272388D01*
X258427Y272332D01*
X260030Y270729D01*
X261113Y268115D01*
X261113Y265285D01*
X260030Y262671D01*
X258427Y261068D01*
X258392Y261021D01*
X258349Y260981D01*
X258307Y260908D01*
X258256Y260841D01*
X258235Y260786D01*
X258206Y260736D01*
X258185Y260654D01*
X258155Y260575D01*
X258150Y260517D01*
X258135Y260460D01*
X258138Y260376D01*
X258131Y260292D01*
X258143Y260234D01*
X258144Y260176D01*
X258170Y260096D01*
X258187Y260013D01*
X258214Y259961D01*
X258232Y259905D01*
X258272Y259849D01*
X258318Y259761D01*
X258387Y259688D01*
X258427Y259632D01*
X260030Y258029D01*
X261113Y255415D01*
X261113Y252585D01*
X260030Y249971D01*
X258029Y247970D01*
X255415Y246887D01*
X252585Y246887D01*
G37*
%LPD*%
%LPC*%
G36*
X252585Y157987D02*
X252585Y157987D01*
X249971Y159070D01*
X247970Y161071D01*
X246887Y163685D01*
X246887Y166515D01*
X247970Y169129D01*
X249573Y170732D01*
X249608Y170779D01*
X249651Y170819D01*
X249693Y170892D01*
X249744Y170959D01*
X249765Y171014D01*
X249794Y171064D01*
X249815Y171146D01*
X249845Y171225D01*
X249850Y171283D01*
X249865Y171340D01*
X249862Y171424D01*
X249869Y171508D01*
X249857Y171566D01*
X249856Y171624D01*
X249830Y171704D01*
X249813Y171787D01*
X249786Y171839D01*
X249768Y171895D01*
X249728Y171951D01*
X249682Y172039D01*
X249613Y172112D01*
X249573Y172168D01*
X247970Y173771D01*
X246887Y176385D01*
X246887Y179215D01*
X247970Y181829D01*
X249573Y183432D01*
X249608Y183479D01*
X249651Y183519D01*
X249693Y183592D01*
X249744Y183659D01*
X249765Y183714D01*
X249794Y183764D01*
X249815Y183846D01*
X249845Y183925D01*
X249850Y183983D01*
X249865Y184040D01*
X249862Y184124D01*
X249869Y184208D01*
X249857Y184266D01*
X249856Y184324D01*
X249830Y184404D01*
X249813Y184487D01*
X249786Y184539D01*
X249768Y184595D01*
X249728Y184651D01*
X249682Y184739D01*
X249613Y184812D01*
X249573Y184868D01*
X247970Y186471D01*
X246887Y189085D01*
X246887Y191915D01*
X247970Y194529D01*
X249971Y196530D01*
X252585Y197613D01*
X255415Y197613D01*
X258029Y196530D01*
X260030Y194529D01*
X261113Y191915D01*
X261113Y189085D01*
X260030Y186471D01*
X258427Y184868D01*
X258392Y184821D01*
X258349Y184781D01*
X258307Y184708D01*
X258256Y184641D01*
X258235Y184586D01*
X258206Y184536D01*
X258185Y184454D01*
X258155Y184375D01*
X258150Y184317D01*
X258135Y184260D01*
X258138Y184176D01*
X258131Y184092D01*
X258143Y184034D01*
X258144Y183976D01*
X258170Y183896D01*
X258187Y183813D01*
X258214Y183761D01*
X258232Y183705D01*
X258272Y183649D01*
X258318Y183561D01*
X258387Y183488D01*
X258427Y183432D01*
X260030Y181829D01*
X261113Y179215D01*
X261113Y176385D01*
X260030Y173771D01*
X258427Y172168D01*
X258392Y172121D01*
X258349Y172081D01*
X258307Y172008D01*
X258256Y171941D01*
X258235Y171886D01*
X258206Y171836D01*
X258185Y171754D01*
X258155Y171675D01*
X258150Y171617D01*
X258135Y171560D01*
X258138Y171476D01*
X258131Y171392D01*
X258143Y171334D01*
X258144Y171276D01*
X258170Y171196D01*
X258187Y171113D01*
X258214Y171061D01*
X258232Y171005D01*
X258272Y170949D01*
X258318Y170861D01*
X258387Y170788D01*
X258427Y170732D01*
X260030Y169129D01*
X261113Y166515D01*
X261113Y163685D01*
X260030Y161071D01*
X258029Y159070D01*
X255415Y157987D01*
X252585Y157987D01*
G37*
%LPD*%
%LPC*%
G36*
X201785Y107187D02*
X201785Y107187D01*
X199171Y108270D01*
X197170Y110271D01*
X196087Y112885D01*
X196087Y115715D01*
X197170Y118329D01*
X199171Y120330D01*
X201785Y121413D01*
X204615Y121413D01*
X207229Y120330D01*
X208832Y118727D01*
X208879Y118692D01*
X208919Y118649D01*
X208992Y118607D01*
X209059Y118556D01*
X209114Y118535D01*
X209164Y118506D01*
X209246Y118485D01*
X209325Y118455D01*
X209383Y118450D01*
X209440Y118435D01*
X209524Y118438D01*
X209608Y118431D01*
X209666Y118443D01*
X209724Y118444D01*
X209804Y118470D01*
X209887Y118487D01*
X209939Y118514D01*
X209995Y118532D01*
X210051Y118572D01*
X210139Y118618D01*
X210212Y118687D01*
X210268Y118727D01*
X211871Y120330D01*
X214485Y121413D01*
X217315Y121413D01*
X219929Y120330D01*
X221532Y118727D01*
X221579Y118692D01*
X221619Y118649D01*
X221692Y118607D01*
X221759Y118556D01*
X221814Y118535D01*
X221864Y118506D01*
X221946Y118485D01*
X222025Y118455D01*
X222083Y118450D01*
X222140Y118435D01*
X222224Y118438D01*
X222308Y118431D01*
X222366Y118443D01*
X222424Y118444D01*
X222504Y118470D01*
X222587Y118487D01*
X222639Y118514D01*
X222695Y118532D01*
X222751Y118572D01*
X222839Y118618D01*
X222912Y118687D01*
X222968Y118727D01*
X224571Y120330D01*
X227185Y121413D01*
X230015Y121413D01*
X232629Y120330D01*
X234630Y118329D01*
X235713Y115715D01*
X235713Y112885D01*
X234630Y110271D01*
X232629Y108270D01*
X230015Y107187D01*
X227185Y107187D01*
X224571Y108270D01*
X222968Y109873D01*
X222921Y109908D01*
X222881Y109951D01*
X222853Y109967D01*
X222847Y109972D01*
X222820Y109986D01*
X222808Y109993D01*
X222741Y110044D01*
X222686Y110065D01*
X222636Y110094D01*
X222554Y110115D01*
X222475Y110145D01*
X222417Y110150D01*
X222360Y110165D01*
X222276Y110162D01*
X222192Y110169D01*
X222134Y110157D01*
X222076Y110156D01*
X221996Y110130D01*
X221913Y110113D01*
X221861Y110086D01*
X221805Y110068D01*
X221749Y110028D01*
X221709Y110007D01*
X221696Y110001D01*
X221693Y109999D01*
X221661Y109982D01*
X221588Y109913D01*
X221532Y109873D01*
X219929Y108270D01*
X217315Y107187D01*
X214485Y107187D01*
X211871Y108270D01*
X210268Y109873D01*
X210221Y109908D01*
X210181Y109951D01*
X210153Y109967D01*
X210147Y109972D01*
X210121Y109986D01*
X210108Y109993D01*
X210041Y110044D01*
X209986Y110065D01*
X209936Y110094D01*
X209854Y110115D01*
X209775Y110145D01*
X209717Y110150D01*
X209660Y110165D01*
X209576Y110162D01*
X209492Y110169D01*
X209434Y110157D01*
X209376Y110156D01*
X209296Y110130D01*
X209213Y110113D01*
X209161Y110086D01*
X209105Y110068D01*
X209049Y110028D01*
X209009Y110007D01*
X208996Y110001D01*
X208993Y109999D01*
X208961Y109982D01*
X208888Y109913D01*
X208832Y109873D01*
X207229Y108270D01*
X204615Y107187D01*
X201785Y107187D01*
G37*
%LPD*%
%LPC*%
G36*
X354185Y107187D02*
X354185Y107187D01*
X351571Y108270D01*
X349570Y110271D01*
X348487Y112885D01*
X348487Y115715D01*
X349570Y118329D01*
X351571Y120330D01*
X354185Y121413D01*
X357015Y121413D01*
X359629Y120330D01*
X361232Y118727D01*
X361279Y118692D01*
X361319Y118649D01*
X361392Y118607D01*
X361459Y118556D01*
X361514Y118535D01*
X361564Y118506D01*
X361646Y118485D01*
X361725Y118455D01*
X361783Y118450D01*
X361840Y118435D01*
X361924Y118438D01*
X362008Y118431D01*
X362066Y118443D01*
X362124Y118444D01*
X362204Y118470D01*
X362287Y118487D01*
X362339Y118514D01*
X362395Y118532D01*
X362451Y118572D01*
X362539Y118618D01*
X362612Y118687D01*
X362668Y118727D01*
X364271Y120330D01*
X366885Y121413D01*
X369715Y121413D01*
X372329Y120330D01*
X373932Y118727D01*
X373979Y118692D01*
X374019Y118649D01*
X374092Y118607D01*
X374159Y118556D01*
X374214Y118535D01*
X374264Y118506D01*
X374346Y118485D01*
X374425Y118455D01*
X374483Y118450D01*
X374540Y118435D01*
X374624Y118438D01*
X374708Y118431D01*
X374766Y118443D01*
X374824Y118444D01*
X374904Y118470D01*
X374987Y118487D01*
X375039Y118514D01*
X375095Y118532D01*
X375151Y118572D01*
X375239Y118618D01*
X375312Y118687D01*
X375368Y118727D01*
X376971Y120330D01*
X379585Y121413D01*
X382415Y121413D01*
X385029Y120330D01*
X387030Y118329D01*
X388113Y115715D01*
X388113Y112885D01*
X387030Y110271D01*
X385029Y108270D01*
X382415Y107187D01*
X379585Y107187D01*
X376971Y108270D01*
X375368Y109873D01*
X375321Y109908D01*
X375281Y109951D01*
X375253Y109967D01*
X375247Y109972D01*
X375220Y109986D01*
X375208Y109993D01*
X375141Y110044D01*
X375086Y110065D01*
X375036Y110094D01*
X374954Y110115D01*
X374875Y110145D01*
X374817Y110150D01*
X374760Y110165D01*
X374676Y110162D01*
X374592Y110169D01*
X374534Y110157D01*
X374476Y110156D01*
X374396Y110130D01*
X374313Y110113D01*
X374261Y110086D01*
X374205Y110068D01*
X374149Y110028D01*
X374109Y110007D01*
X374096Y110001D01*
X374093Y109999D01*
X374061Y109982D01*
X373988Y109913D01*
X373932Y109873D01*
X372329Y108270D01*
X369715Y107187D01*
X366885Y107187D01*
X364271Y108270D01*
X362668Y109873D01*
X362621Y109908D01*
X362581Y109951D01*
X362553Y109967D01*
X362547Y109972D01*
X362520Y109986D01*
X362508Y109993D01*
X362441Y110044D01*
X362386Y110065D01*
X362336Y110094D01*
X362254Y110115D01*
X362175Y110145D01*
X362117Y110150D01*
X362060Y110165D01*
X361976Y110162D01*
X361892Y110169D01*
X361834Y110157D01*
X361776Y110156D01*
X361696Y110130D01*
X361613Y110113D01*
X361561Y110086D01*
X361505Y110068D01*
X361449Y110028D01*
X361409Y110007D01*
X361396Y110001D01*
X361393Y109999D01*
X361361Y109982D01*
X361288Y109913D01*
X361232Y109873D01*
X359629Y108270D01*
X357015Y107187D01*
X354185Y107187D01*
G37*
%LPD*%
%LPC*%
G36*
X646285Y373887D02*
X646285Y373887D01*
X643671Y374970D01*
X641670Y376971D01*
X640587Y379585D01*
X640587Y382415D01*
X641670Y385029D01*
X643273Y386632D01*
X643281Y386643D01*
X643284Y386645D01*
X643290Y386655D01*
X643308Y386679D01*
X643351Y386719D01*
X643393Y386792D01*
X643444Y386859D01*
X643465Y386914D01*
X643494Y386964D01*
X643515Y387046D01*
X643545Y387125D01*
X643550Y387183D01*
X643565Y387240D01*
X643562Y387324D01*
X643569Y387408D01*
X643557Y387466D01*
X643556Y387524D01*
X643530Y387604D01*
X643513Y387687D01*
X643486Y387739D01*
X643468Y387795D01*
X643428Y387851D01*
X643382Y387939D01*
X643313Y388012D01*
X643273Y388068D01*
X641670Y389671D01*
X640587Y392285D01*
X640587Y395115D01*
X641670Y397729D01*
X643273Y399332D01*
X643308Y399379D01*
X643351Y399419D01*
X643393Y399492D01*
X643444Y399559D01*
X643465Y399614D01*
X643494Y399664D01*
X643515Y399746D01*
X643545Y399825D01*
X643550Y399883D01*
X643565Y399940D01*
X643562Y400024D01*
X643569Y400108D01*
X643557Y400166D01*
X643556Y400224D01*
X643530Y400304D01*
X643513Y400387D01*
X643486Y400439D01*
X643468Y400495D01*
X643428Y400551D01*
X643382Y400639D01*
X643313Y400712D01*
X643273Y400768D01*
X641670Y402371D01*
X640587Y404985D01*
X640587Y407815D01*
X641670Y410429D01*
X643671Y412430D01*
X646285Y413513D01*
X649115Y413513D01*
X651729Y412430D01*
X653730Y410429D01*
X654813Y407815D01*
X654813Y404985D01*
X653730Y402371D01*
X652127Y400768D01*
X652092Y400721D01*
X652049Y400681D01*
X652007Y400608D01*
X651956Y400541D01*
X651935Y400486D01*
X651906Y400436D01*
X651885Y400354D01*
X651855Y400275D01*
X651850Y400217D01*
X651835Y400160D01*
X651838Y400076D01*
X651831Y399992D01*
X651843Y399934D01*
X651844Y399876D01*
X651870Y399796D01*
X651887Y399713D01*
X651914Y399661D01*
X651932Y399605D01*
X651972Y399549D01*
X652018Y399461D01*
X652087Y399388D01*
X652127Y399332D01*
X653730Y397729D01*
X654813Y395115D01*
X654813Y392285D01*
X653730Y389671D01*
X652127Y388068D01*
X652092Y388021D01*
X652049Y387981D01*
X652007Y387908D01*
X651956Y387841D01*
X651935Y387786D01*
X651906Y387736D01*
X651885Y387654D01*
X651855Y387575D01*
X651850Y387517D01*
X651835Y387460D01*
X651838Y387376D01*
X651831Y387292D01*
X651843Y387234D01*
X651844Y387176D01*
X651870Y387096D01*
X651887Y387013D01*
X651914Y386961D01*
X651932Y386905D01*
X651972Y386849D01*
X652018Y386761D01*
X652070Y386706D01*
X652083Y386685D01*
X652103Y386666D01*
X652127Y386632D01*
X653730Y385029D01*
X654813Y382415D01*
X654813Y379585D01*
X653730Y376971D01*
X651729Y374970D01*
X649115Y373887D01*
X646285Y373887D01*
G37*
%LPD*%
%LPC*%
G36*
X395731Y27431D02*
X395731Y27431D01*
X395731Y48769D01*
X417069Y48769D01*
X417069Y27431D01*
X395731Y27431D01*
G37*
%LPD*%
%LPC*%
G36*
X353326Y445769D02*
X353326Y445769D01*
X349125Y447510D01*
X345910Y450725D01*
X344169Y454926D01*
X344169Y459474D01*
X345910Y463675D01*
X349125Y466890D01*
X353326Y468631D01*
X357874Y468631D01*
X362075Y466890D01*
X365290Y463675D01*
X367031Y459474D01*
X367031Y454926D01*
X365290Y450725D01*
X362075Y447510D01*
X357874Y445769D01*
X353326Y445769D01*
G37*
%LPD*%
%LPC*%
G36*
X302526Y445769D02*
X302526Y445769D01*
X298325Y447510D01*
X295110Y450725D01*
X293369Y454926D01*
X293369Y459474D01*
X295110Y463675D01*
X298325Y466890D01*
X302526Y468631D01*
X307074Y468631D01*
X311275Y466890D01*
X314490Y463675D01*
X316231Y459474D01*
X316231Y454926D01*
X314490Y450725D01*
X311275Y447510D01*
X307074Y445769D01*
X302526Y445769D01*
G37*
%LPD*%
%LPC*%
G36*
X404126Y445769D02*
X404126Y445769D01*
X399925Y447510D01*
X396710Y450725D01*
X394969Y454926D01*
X394969Y459474D01*
X396710Y463675D01*
X399925Y466890D01*
X404126Y468631D01*
X408674Y468631D01*
X412875Y466890D01*
X416090Y463675D01*
X417831Y459474D01*
X417831Y454926D01*
X416090Y450725D01*
X412875Y447510D01*
X408674Y445769D01*
X404126Y445769D01*
G37*
%LPD*%
%LPC*%
G36*
X607326Y445769D02*
X607326Y445769D01*
X603125Y447510D01*
X599910Y450725D01*
X598169Y454926D01*
X598169Y459474D01*
X599910Y463675D01*
X603125Y466890D01*
X607326Y468631D01*
X611874Y468631D01*
X616075Y466890D01*
X619290Y463675D01*
X621031Y459474D01*
X621031Y454926D01*
X619290Y450725D01*
X616075Y447510D01*
X611874Y445769D01*
X607326Y445769D01*
G37*
%LPD*%
%LPC*%
G36*
X581926Y445769D02*
X581926Y445769D01*
X577725Y447510D01*
X574510Y450725D01*
X572769Y454926D01*
X572769Y459474D01*
X574510Y463675D01*
X577725Y466890D01*
X581926Y468631D01*
X586474Y468631D01*
X590675Y466890D01*
X593890Y463675D01*
X595631Y459474D01*
X595631Y454926D01*
X593890Y450725D01*
X590675Y447510D01*
X586474Y445769D01*
X581926Y445769D01*
G37*
%LPD*%
%LPC*%
G36*
X556526Y445769D02*
X556526Y445769D01*
X552325Y447510D01*
X549110Y450725D01*
X547369Y454926D01*
X547369Y459474D01*
X549110Y463675D01*
X552325Y466890D01*
X556526Y468631D01*
X561074Y468631D01*
X565275Y466890D01*
X568490Y463675D01*
X570231Y459474D01*
X570231Y454926D01*
X568490Y450725D01*
X565275Y447510D01*
X561074Y445769D01*
X556526Y445769D01*
G37*
%LPD*%
%LPC*%
G36*
X531126Y445769D02*
X531126Y445769D01*
X526925Y447510D01*
X523710Y450725D01*
X521969Y454926D01*
X521969Y459474D01*
X523710Y463675D01*
X526925Y466890D01*
X531126Y468631D01*
X535674Y468631D01*
X539875Y466890D01*
X543090Y463675D01*
X544831Y459474D01*
X544831Y454926D01*
X543090Y450725D01*
X539875Y447510D01*
X535674Y445769D01*
X531126Y445769D01*
G37*
%LPD*%
%LPC*%
G36*
X505726Y445769D02*
X505726Y445769D01*
X501525Y447510D01*
X498310Y450725D01*
X496569Y454926D01*
X496569Y459474D01*
X498310Y463675D01*
X501525Y466890D01*
X505726Y468631D01*
X510274Y468631D01*
X514475Y466890D01*
X517690Y463675D01*
X519431Y459474D01*
X519431Y454926D01*
X517690Y450725D01*
X514475Y447510D01*
X510274Y445769D01*
X505726Y445769D01*
G37*
%LPD*%
%LPC*%
G36*
X480326Y445769D02*
X480326Y445769D01*
X476125Y447510D01*
X472910Y450725D01*
X471169Y454926D01*
X471169Y459474D01*
X472910Y463675D01*
X476125Y466890D01*
X480326Y468631D01*
X484874Y468631D01*
X489075Y466890D01*
X492290Y463675D01*
X494031Y459474D01*
X494031Y454926D01*
X492290Y450725D01*
X489075Y447510D01*
X484874Y445769D01*
X480326Y445769D01*
G37*
%LPD*%
%LPC*%
G36*
X454926Y445769D02*
X454926Y445769D01*
X450725Y447510D01*
X447510Y450725D01*
X445769Y454926D01*
X445769Y459474D01*
X447510Y463675D01*
X450725Y466890D01*
X454926Y468631D01*
X459474Y468631D01*
X463675Y466890D01*
X466890Y463675D01*
X468631Y459474D01*
X468631Y454926D01*
X466890Y450725D01*
X463675Y447510D01*
X459474Y445769D01*
X454926Y445769D01*
G37*
%LPD*%
%LPC*%
G36*
X429526Y445769D02*
X429526Y445769D01*
X425325Y447510D01*
X422110Y450725D01*
X420369Y454926D01*
X420369Y459474D01*
X422110Y463675D01*
X425325Y466890D01*
X429526Y468631D01*
X434074Y468631D01*
X438275Y466890D01*
X441490Y463675D01*
X443231Y459474D01*
X443231Y454926D01*
X441490Y450725D01*
X438275Y447510D01*
X434074Y445769D01*
X429526Y445769D01*
G37*
%LPD*%
%LPC*%
G36*
X277126Y445769D02*
X277126Y445769D01*
X272925Y447510D01*
X269710Y450725D01*
X267969Y454926D01*
X267969Y459474D01*
X269710Y463675D01*
X272925Y466890D01*
X277126Y468631D01*
X281674Y468631D01*
X285875Y466890D01*
X289090Y463675D01*
X290831Y459474D01*
X290831Y454926D01*
X289090Y450725D01*
X285875Y447510D01*
X281674Y445769D01*
X277126Y445769D01*
G37*
%LPD*%
%LPC*%
G36*
X327926Y445769D02*
X327926Y445769D01*
X323725Y447510D01*
X320510Y450725D01*
X318769Y454926D01*
X318769Y459474D01*
X320510Y463675D01*
X323725Y466890D01*
X327926Y468631D01*
X332474Y468631D01*
X336675Y466890D01*
X339890Y463675D01*
X341631Y459474D01*
X341631Y454926D01*
X339890Y450725D01*
X336675Y447510D01*
X332474Y445769D01*
X327926Y445769D01*
G37*
%LPD*%
%LPC*%
G36*
X378726Y445769D02*
X378726Y445769D01*
X374525Y447510D01*
X371310Y450725D01*
X369569Y454926D01*
X369569Y459474D01*
X371310Y463675D01*
X374525Y466890D01*
X378726Y468631D01*
X383274Y468631D01*
X387475Y466890D01*
X390690Y463675D01*
X392431Y459474D01*
X392431Y454926D01*
X390690Y450725D01*
X387475Y447510D01*
X383274Y445769D01*
X378726Y445769D01*
G37*
%LPD*%
%LPC*%
G36*
X366026Y39369D02*
X366026Y39369D01*
X361825Y41110D01*
X358610Y44325D01*
X356869Y48526D01*
X356869Y53074D01*
X358610Y57275D01*
X361825Y60490D01*
X366026Y62231D01*
X370574Y62231D01*
X374775Y60490D01*
X377990Y57275D01*
X379731Y53074D01*
X379731Y48526D01*
X377990Y44325D01*
X374775Y41110D01*
X370574Y39369D01*
X366026Y39369D01*
G37*
%LPD*%
%LPC*%
G36*
X480326Y39369D02*
X480326Y39369D01*
X476125Y41110D01*
X472910Y44325D01*
X471169Y48526D01*
X471169Y53074D01*
X472910Y57275D01*
X476125Y60490D01*
X480326Y62231D01*
X484874Y62231D01*
X489075Y60490D01*
X492290Y57275D01*
X494031Y53074D01*
X494031Y48526D01*
X492290Y44325D01*
X489075Y41110D01*
X484874Y39369D01*
X480326Y39369D01*
G37*
%LPD*%
%LPC*%
G36*
X505726Y39369D02*
X505726Y39369D01*
X501525Y41110D01*
X498310Y44325D01*
X496569Y48526D01*
X496569Y53074D01*
X498310Y57275D01*
X501525Y60490D01*
X505726Y62231D01*
X510274Y62231D01*
X514475Y60490D01*
X517690Y57275D01*
X519431Y53074D01*
X519431Y48526D01*
X517690Y44325D01*
X514475Y41110D01*
X510274Y39369D01*
X505726Y39369D01*
G37*
%LPD*%
%LPC*%
G36*
X607326Y39369D02*
X607326Y39369D01*
X603125Y41110D01*
X599910Y44325D01*
X598169Y48526D01*
X598169Y53074D01*
X599910Y57275D01*
X603125Y60490D01*
X607326Y62231D01*
X611874Y62231D01*
X616075Y60490D01*
X619290Y57275D01*
X621031Y53074D01*
X621031Y48526D01*
X619290Y44325D01*
X616075Y41110D01*
X611874Y39369D01*
X607326Y39369D01*
G37*
%LPD*%
%LPC*%
G36*
X581926Y39369D02*
X581926Y39369D01*
X577725Y41110D01*
X574510Y44325D01*
X572769Y48526D01*
X572769Y53074D01*
X574510Y57275D01*
X577725Y60490D01*
X581926Y62231D01*
X586474Y62231D01*
X590675Y60490D01*
X593890Y57275D01*
X595631Y53074D01*
X595631Y48526D01*
X593890Y44325D01*
X590675Y41110D01*
X586474Y39369D01*
X581926Y39369D01*
G37*
%LPD*%
%LPC*%
G36*
X556526Y39369D02*
X556526Y39369D01*
X552325Y41110D01*
X549110Y44325D01*
X547369Y48526D01*
X547369Y53074D01*
X549110Y57275D01*
X552325Y60490D01*
X556526Y62231D01*
X561074Y62231D01*
X565275Y60490D01*
X568490Y57275D01*
X570231Y53074D01*
X570231Y48526D01*
X568490Y44325D01*
X565275Y41110D01*
X561074Y39369D01*
X556526Y39369D01*
G37*
%LPD*%
%LPC*%
G36*
X531126Y39369D02*
X531126Y39369D01*
X526925Y41110D01*
X523710Y44325D01*
X521969Y48526D01*
X521969Y53074D01*
X523710Y57275D01*
X526925Y60490D01*
X531126Y62231D01*
X535674Y62231D01*
X539875Y60490D01*
X543090Y57275D01*
X544831Y53074D01*
X544831Y48526D01*
X543090Y44325D01*
X539875Y41110D01*
X535674Y39369D01*
X531126Y39369D01*
G37*
%LPD*%
%LPC*%
G36*
X289826Y13969D02*
X289826Y13969D01*
X285625Y15710D01*
X282410Y18925D01*
X280669Y23126D01*
X280669Y27674D01*
X282410Y31875D01*
X285625Y35090D01*
X289826Y36831D01*
X294374Y36831D01*
X298575Y35090D01*
X301790Y31875D01*
X303531Y27674D01*
X303531Y23126D01*
X301790Y18925D01*
X298575Y15710D01*
X294374Y13969D01*
X289826Y13969D01*
G37*
%LPD*%
%LPC*%
G36*
X366026Y13969D02*
X366026Y13969D01*
X361825Y15710D01*
X358610Y18925D01*
X356869Y23126D01*
X356869Y27674D01*
X358610Y31875D01*
X361825Y35090D01*
X366026Y36831D01*
X370574Y36831D01*
X374775Y35090D01*
X377990Y31875D01*
X379731Y27674D01*
X379731Y23126D01*
X377990Y18925D01*
X374775Y15710D01*
X370574Y13969D01*
X366026Y13969D01*
G37*
%LPD*%
%LPC*%
G36*
X607326Y13969D02*
X607326Y13969D01*
X603125Y15710D01*
X599910Y18925D01*
X598169Y23126D01*
X598169Y27674D01*
X599910Y31875D01*
X603125Y35090D01*
X607326Y36831D01*
X611874Y36831D01*
X616075Y35090D01*
X619290Y31875D01*
X621031Y27674D01*
X621031Y23126D01*
X619290Y18925D01*
X616075Y15710D01*
X611874Y13969D01*
X607326Y13969D01*
G37*
%LPD*%
%LPC*%
G36*
X556526Y13969D02*
X556526Y13969D01*
X552325Y15710D01*
X549110Y18925D01*
X547369Y23126D01*
X547369Y27674D01*
X549110Y31875D01*
X552325Y35090D01*
X556526Y36831D01*
X561074Y36831D01*
X565275Y35090D01*
X568490Y31875D01*
X570231Y27674D01*
X570231Y23126D01*
X568490Y18925D01*
X565275Y15710D01*
X561074Y13969D01*
X556526Y13969D01*
G37*
%LPD*%
%LPC*%
G36*
X531126Y13969D02*
X531126Y13969D01*
X526925Y15710D01*
X523710Y18925D01*
X521969Y23126D01*
X521969Y27674D01*
X523710Y31875D01*
X526925Y35090D01*
X531126Y36831D01*
X535674Y36831D01*
X539875Y35090D01*
X543090Y31875D01*
X544831Y27674D01*
X544831Y23126D01*
X543090Y18925D01*
X539875Y15710D01*
X535674Y13969D01*
X531126Y13969D01*
G37*
%LPD*%
%LPC*%
G36*
X505726Y13969D02*
X505726Y13969D01*
X501525Y15710D01*
X498310Y18925D01*
X496569Y23126D01*
X496569Y27674D01*
X498310Y31875D01*
X501525Y35090D01*
X505726Y36831D01*
X510274Y36831D01*
X514475Y35090D01*
X517690Y31875D01*
X519431Y27674D01*
X519431Y23126D01*
X517690Y18925D01*
X514475Y15710D01*
X510274Y13969D01*
X505726Y13969D01*
G37*
%LPD*%
%LPC*%
G36*
X480326Y13969D02*
X480326Y13969D01*
X476125Y15710D01*
X472910Y18925D01*
X471169Y23126D01*
X471169Y27674D01*
X472910Y31875D01*
X476125Y35090D01*
X480326Y36831D01*
X484874Y36831D01*
X489075Y35090D01*
X492290Y31875D01*
X494031Y27674D01*
X494031Y23126D01*
X492290Y18925D01*
X489075Y15710D01*
X484874Y13969D01*
X480326Y13969D01*
G37*
%LPD*%
%LPC*%
G36*
X340626Y13969D02*
X340626Y13969D01*
X336425Y15710D01*
X333210Y18925D01*
X331469Y23126D01*
X331469Y27674D01*
X333210Y31875D01*
X336425Y35090D01*
X340626Y36831D01*
X345174Y36831D01*
X349375Y35090D01*
X352590Y31875D01*
X354331Y27674D01*
X354331Y23126D01*
X352590Y18925D01*
X349375Y15710D01*
X345174Y13969D01*
X340626Y13969D01*
G37*
%LPD*%
%LPC*%
G36*
X315226Y13969D02*
X315226Y13969D01*
X311025Y15710D01*
X307810Y18925D01*
X306069Y23126D01*
X306069Y27674D01*
X307810Y31875D01*
X311025Y35090D01*
X315226Y36831D01*
X319774Y36831D01*
X323975Y35090D01*
X327190Y31875D01*
X328931Y27674D01*
X328931Y23126D01*
X327190Y18925D01*
X323975Y15710D01*
X319774Y13969D01*
X315226Y13969D01*
G37*
%LPD*%
%LPC*%
G36*
X581926Y13969D02*
X581926Y13969D01*
X577725Y15710D01*
X574510Y18925D01*
X572769Y23126D01*
X572769Y27674D01*
X574510Y31875D01*
X577725Y35090D01*
X581926Y36831D01*
X586474Y36831D01*
X590675Y35090D01*
X593890Y31875D01*
X595631Y27674D01*
X595631Y23126D01*
X593890Y18925D01*
X590675Y15710D01*
X586474Y13969D01*
X581926Y13969D01*
G37*
%LPD*%
%LPC*%
G36*
X315226Y39369D02*
X315226Y39369D01*
X311025Y41110D01*
X307810Y44325D01*
X306069Y48526D01*
X306069Y53074D01*
X307810Y57275D01*
X311025Y60490D01*
X315226Y62231D01*
X319774Y62231D01*
X323975Y60490D01*
X327190Y57275D01*
X328931Y53074D01*
X328931Y48526D01*
X327190Y44325D01*
X323975Y41110D01*
X319774Y39369D01*
X315226Y39369D01*
G37*
%LPD*%
%LPC*%
G36*
X289826Y39369D02*
X289826Y39369D01*
X285625Y41110D01*
X282410Y44325D01*
X280669Y48526D01*
X280669Y53074D01*
X282410Y57275D01*
X285625Y60490D01*
X289826Y62231D01*
X294374Y62231D01*
X298575Y60490D01*
X301790Y57275D01*
X303531Y53074D01*
X303531Y48526D01*
X301790Y44325D01*
X298575Y41110D01*
X294374Y39369D01*
X289826Y39369D01*
G37*
%LPD*%
%LPC*%
G36*
X340626Y39369D02*
X340626Y39369D01*
X336425Y41110D01*
X333210Y44325D01*
X331469Y48526D01*
X331469Y53074D01*
X333210Y57275D01*
X336425Y60490D01*
X340626Y62231D01*
X345174Y62231D01*
X349375Y60490D01*
X352590Y57275D01*
X354331Y53074D01*
X354331Y48526D01*
X352590Y44325D01*
X349375Y41110D01*
X345174Y39369D01*
X340626Y39369D01*
G37*
%LPD*%
%LPC*%
G36*
X53631Y370331D02*
X53631Y370331D01*
X53631Y392355D01*
X55649Y392127D01*
X58291Y391524D01*
X60849Y390629D01*
X63291Y389453D01*
X65586Y388011D01*
X67705Y386321D01*
X69621Y384405D01*
X71311Y382286D01*
X72753Y379991D01*
X73929Y377549D01*
X74824Y374991D01*
X75427Y372349D01*
X75655Y370331D01*
X53631Y370331D01*
G37*
%LPD*%
%LPC*%
G36*
X27545Y370331D02*
X27545Y370331D01*
X27773Y372349D01*
X28376Y374991D01*
X29271Y377549D01*
X29365Y377744D01*
X29854Y378759D01*
X29854Y378760D01*
X30343Y379775D01*
X30447Y379991D01*
X31889Y382286D01*
X33579Y384405D01*
X35495Y386321D01*
X37614Y388011D01*
X38379Y388492D01*
X39909Y389453D01*
X42351Y390629D01*
X44909Y391524D01*
X47551Y392127D01*
X49569Y392355D01*
X49569Y370331D01*
X27545Y370331D01*
G37*
%LPD*%
%LPC*%
G36*
X57545Y323331D02*
X57545Y323331D01*
X57773Y325349D01*
X58376Y327991D01*
X59271Y330549D01*
X59509Y331043D01*
X59998Y332058D01*
X60447Y332991D01*
X61889Y335286D01*
X63579Y337405D01*
X65495Y339321D01*
X67614Y341011D01*
X69909Y342453D01*
X72351Y343629D01*
X74909Y344524D01*
X77551Y345127D01*
X79569Y345355D01*
X79569Y323331D01*
X57545Y323331D01*
G37*
%LPD*%
%LPC*%
G36*
X53631Y366269D02*
X53631Y366269D01*
X75655Y366269D01*
X75427Y364251D01*
X74824Y361609D01*
X73929Y359051D01*
X73576Y358317D01*
X73575Y358317D01*
X73087Y357302D01*
X72753Y356609D01*
X71311Y354314D01*
X69621Y352195D01*
X67705Y350279D01*
X65586Y348589D01*
X65579Y348585D01*
X63291Y347147D01*
X60849Y345971D01*
X58291Y345076D01*
X55649Y344473D01*
X53631Y344245D01*
X53631Y366269D01*
G37*
%LPD*%
%LPC*%
G36*
X47551Y344473D02*
X47551Y344473D01*
X44909Y345076D01*
X42351Y345971D01*
X39909Y347147D01*
X37614Y348589D01*
X35495Y350279D01*
X33579Y352195D01*
X31889Y354314D01*
X30447Y356609D01*
X29271Y359051D01*
X28376Y361609D01*
X27773Y364251D01*
X27545Y366269D01*
X49569Y366269D01*
X49569Y344245D01*
X47551Y344473D01*
G37*
%LPD*%
%LPC*%
G36*
X77551Y297473D02*
X77551Y297473D01*
X74909Y298076D01*
X72351Y298971D01*
X69909Y300147D01*
X67614Y301589D01*
X65495Y303279D01*
X63579Y305195D01*
X61889Y307314D01*
X60447Y309609D01*
X59271Y312051D01*
X58376Y314609D01*
X57773Y317251D01*
X57545Y319269D01*
X79569Y319269D01*
X79569Y297245D01*
X77551Y297473D01*
G37*
%LPD*%
%LPC*%
G36*
X455179Y167639D02*
X455179Y167639D01*
X451444Y169186D01*
X448586Y172044D01*
X447039Y175779D01*
X447039Y179821D01*
X448586Y183556D01*
X451444Y186414D01*
X455179Y187961D01*
X459221Y187961D01*
X462956Y186414D01*
X465814Y183556D01*
X467361Y179821D01*
X467361Y175779D01*
X465814Y172044D01*
X462956Y169186D01*
X459221Y167639D01*
X455179Y167639D01*
G37*
%LPD*%
%LPC*%
G36*
X531379Y167639D02*
X531379Y167639D01*
X527644Y169186D01*
X524786Y172044D01*
X523239Y175779D01*
X523239Y179821D01*
X524786Y183556D01*
X527644Y186414D01*
X531379Y187961D01*
X535421Y187961D01*
X539156Y186414D01*
X542014Y183556D01*
X543561Y179821D01*
X543561Y175779D01*
X542014Y172044D01*
X539156Y169186D01*
X535421Y167639D01*
X531379Y167639D01*
G37*
%LPD*%
%LPC*%
G36*
X455179Y243839D02*
X455179Y243839D01*
X451444Y245386D01*
X448586Y248244D01*
X447039Y251979D01*
X447039Y256021D01*
X448586Y259756D01*
X451444Y262614D01*
X455179Y264161D01*
X459221Y264161D01*
X462956Y262614D01*
X465814Y259756D01*
X467361Y256021D01*
X467361Y251979D01*
X465814Y248244D01*
X462956Y245386D01*
X459221Y243839D01*
X455179Y243839D01*
G37*
%LPD*%
%LPC*%
G36*
X429779Y243839D02*
X429779Y243839D01*
X426044Y245386D01*
X423186Y248244D01*
X421639Y251979D01*
X421639Y256021D01*
X423186Y259756D01*
X426044Y262614D01*
X429779Y264161D01*
X433821Y264161D01*
X437556Y262614D01*
X440414Y259756D01*
X441961Y256021D01*
X441961Y251979D01*
X440414Y248244D01*
X437556Y245386D01*
X433821Y243839D01*
X429779Y243839D01*
G37*
%LPD*%
%LPC*%
G36*
X505979Y243839D02*
X505979Y243839D01*
X502244Y245386D01*
X499386Y248244D01*
X497839Y251979D01*
X497839Y256021D01*
X499386Y259756D01*
X502244Y262614D01*
X505979Y264161D01*
X510021Y264161D01*
X513756Y262614D01*
X516614Y259756D01*
X518161Y256021D01*
X518161Y251979D01*
X516614Y248244D01*
X513756Y245386D01*
X510021Y243839D01*
X505979Y243839D01*
G37*
%LPD*%
%LPC*%
G36*
X556779Y167639D02*
X556779Y167639D01*
X553044Y169186D01*
X550186Y172044D01*
X548639Y175779D01*
X548639Y179821D01*
X550186Y183556D01*
X553044Y186414D01*
X556779Y187961D01*
X560821Y187961D01*
X564556Y186414D01*
X567414Y183556D01*
X568961Y179821D01*
X568961Y175779D01*
X567414Y172044D01*
X564556Y169186D01*
X560821Y167639D01*
X556779Y167639D01*
G37*
%LPD*%
%LPC*%
G36*
X480579Y167639D02*
X480579Y167639D01*
X476844Y169186D01*
X473986Y172044D01*
X472439Y175779D01*
X472439Y179821D01*
X473986Y183556D01*
X476844Y186414D01*
X480579Y187961D01*
X484621Y187961D01*
X488356Y186414D01*
X491214Y183556D01*
X492761Y179821D01*
X492761Y175779D01*
X491214Y172044D01*
X488356Y169186D01*
X484621Y167639D01*
X480579Y167639D01*
G37*
%LPD*%
%LPC*%
G36*
X632979Y167639D02*
X632979Y167639D01*
X629244Y169186D01*
X626386Y172044D01*
X624839Y175779D01*
X624839Y179821D01*
X626386Y183556D01*
X629244Y186414D01*
X632979Y187961D01*
X637021Y187961D01*
X640756Y186414D01*
X643614Y183556D01*
X645161Y179821D01*
X645161Y175779D01*
X643614Y172044D01*
X640756Y169186D01*
X637021Y167639D01*
X632979Y167639D01*
G37*
%LPD*%
%LPC*%
G36*
X607579Y167639D02*
X607579Y167639D01*
X603844Y169186D01*
X600986Y172044D01*
X599439Y175779D01*
X599439Y179821D01*
X600986Y183556D01*
X603844Y186414D01*
X607579Y187961D01*
X611621Y187961D01*
X615356Y186414D01*
X618214Y183556D01*
X619761Y179821D01*
X619761Y175779D01*
X618214Y172044D01*
X615356Y169186D01*
X611621Y167639D01*
X607579Y167639D01*
G37*
%LPD*%
%LPC*%
G36*
X582179Y167639D02*
X582179Y167639D01*
X578444Y169186D01*
X575586Y172044D01*
X574039Y175779D01*
X574039Y179821D01*
X575586Y183556D01*
X578444Y186414D01*
X582179Y187961D01*
X586221Y187961D01*
X589956Y186414D01*
X592814Y183556D01*
X594361Y179821D01*
X594361Y175779D01*
X592814Y172044D01*
X589956Y169186D01*
X586221Y167639D01*
X582179Y167639D01*
G37*
%LPD*%
%LPC*%
G36*
X23985Y297687D02*
X23985Y297687D01*
X21371Y298770D01*
X19370Y300771D01*
X18287Y303385D01*
X18287Y306215D01*
X19370Y308829D01*
X21371Y310830D01*
X23985Y311913D01*
X26815Y311913D01*
X29429Y310830D01*
X31032Y309227D01*
X31079Y309192D01*
X31119Y309149D01*
X31192Y309107D01*
X31259Y309056D01*
X31314Y309035D01*
X31364Y309006D01*
X31446Y308985D01*
X31525Y308955D01*
X31583Y308950D01*
X31640Y308935D01*
X31724Y308938D01*
X31808Y308931D01*
X31866Y308943D01*
X31924Y308944D01*
X32004Y308970D01*
X32087Y308987D01*
X32139Y309014D01*
X32195Y309032D01*
X32251Y309072D01*
X32339Y309118D01*
X32412Y309187D01*
X32468Y309227D01*
X34071Y310830D01*
X36685Y311913D01*
X39515Y311913D01*
X42129Y310830D01*
X44130Y308829D01*
X45213Y306215D01*
X45213Y303385D01*
X44130Y300771D01*
X42129Y298770D01*
X39515Y297687D01*
X36685Y297687D01*
X34071Y298770D01*
X32468Y300373D01*
X32421Y300408D01*
X32381Y300451D01*
X32308Y300493D01*
X32241Y300544D01*
X32186Y300565D01*
X32136Y300594D01*
X32054Y300615D01*
X31975Y300645D01*
X31917Y300650D01*
X31860Y300665D01*
X31776Y300662D01*
X31692Y300669D01*
X31634Y300657D01*
X31576Y300656D01*
X31496Y300630D01*
X31413Y300613D01*
X31361Y300586D01*
X31305Y300568D01*
X31249Y300528D01*
X31161Y300482D01*
X31088Y300413D01*
X31032Y300373D01*
X29429Y298770D01*
X26815Y297687D01*
X23985Y297687D01*
G37*
%LPD*%
%LPC*%
G36*
X42239Y252239D02*
X42239Y252239D01*
X39743Y253273D01*
X37833Y255183D01*
X36799Y257679D01*
X36799Y260381D01*
X37833Y262877D01*
X39743Y264787D01*
X42239Y265821D01*
X44941Y265821D01*
X47437Y264787D01*
X49347Y262877D01*
X50381Y260381D01*
X50381Y257679D01*
X49347Y255183D01*
X47437Y253273D01*
X44941Y252239D01*
X42239Y252239D01*
G37*
%LPD*%
%LPC*%
G36*
X42239Y214239D02*
X42239Y214239D01*
X39743Y215273D01*
X37833Y217183D01*
X36799Y219679D01*
X36799Y222381D01*
X37833Y224877D01*
X39743Y226787D01*
X42239Y227821D01*
X44941Y227821D01*
X47437Y226787D01*
X49347Y224877D01*
X50381Y222381D01*
X50381Y219679D01*
X49347Y217183D01*
X47437Y215273D01*
X44941Y214239D01*
X42239Y214239D01*
G37*
%LPD*%
%LPC*%
G36*
X395731Y52831D02*
X395731Y52831D01*
X395731Y62566D01*
X396496Y62445D01*
X398283Y61864D01*
X399957Y61011D01*
X401478Y59906D01*
X402806Y58578D01*
X403911Y57057D01*
X404764Y55383D01*
X405345Y53596D01*
X405397Y53264D01*
X405434Y53144D01*
X405467Y53023D01*
X405476Y53009D01*
X405481Y52992D01*
X405549Y52887D01*
X405583Y52831D01*
X395731Y52831D01*
G37*
%LPD*%
%LPC*%
G36*
X421131Y27431D02*
X421131Y27431D01*
X421131Y37287D01*
X421145Y37278D01*
X421246Y37204D01*
X421260Y37199D01*
X421276Y37189D01*
X421546Y37100D01*
X421555Y37100D01*
X421564Y37097D01*
X421896Y37045D01*
X423683Y36464D01*
X425357Y35611D01*
X426878Y34506D01*
X428206Y33178D01*
X429311Y31657D01*
X430164Y29983D01*
X430745Y28196D01*
X430866Y27431D01*
X421131Y27431D01*
G37*
%LPD*%
%LPC*%
G36*
X381934Y27431D02*
X381934Y27431D01*
X382055Y28196D01*
X382636Y29983D01*
X383489Y31657D01*
X384594Y33178D01*
X385922Y34506D01*
X387443Y35611D01*
X389117Y36464D01*
X390904Y37045D01*
X391236Y37097D01*
X391356Y37134D01*
X391477Y37167D01*
X391491Y37176D01*
X391508Y37181D01*
X391613Y37249D01*
X391669Y37283D01*
X391669Y27431D01*
X381934Y27431D01*
G37*
%LPD*%
%LPC*%
G36*
X421131Y48769D02*
X421131Y48769D01*
X430866Y48769D01*
X430745Y48004D01*
X430164Y46217D01*
X429311Y44543D01*
X428206Y43022D01*
X426878Y41694D01*
X425357Y40589D01*
X423683Y39736D01*
X421896Y39155D01*
X421564Y39103D01*
X421444Y39066D01*
X421323Y39033D01*
X421309Y39024D01*
X421292Y39019D01*
X421187Y38951D01*
X421131Y38917D01*
X421131Y48769D01*
G37*
%LPD*%
%LPC*%
G36*
X395731Y23369D02*
X395731Y23369D01*
X405587Y23369D01*
X405578Y23355D01*
X405504Y23254D01*
X405499Y23239D01*
X405488Y23224D01*
X405400Y22954D01*
X405400Y22944D01*
X405397Y22936D01*
X405345Y22604D01*
X404764Y20817D01*
X403911Y19143D01*
X402806Y17622D01*
X401478Y16294D01*
X399957Y15189D01*
X398283Y14336D01*
X396496Y13755D01*
X395731Y13634D01*
X395731Y23369D01*
G37*
%LPD*%
%LPC*%
G36*
X407213Y52831D02*
X407213Y52831D01*
X407222Y52845D01*
X407296Y52946D01*
X407301Y52960D01*
X407311Y52976D01*
X407400Y53246D01*
X407400Y53255D01*
X407403Y53264D01*
X407455Y53596D01*
X408036Y55383D01*
X408889Y57057D01*
X409994Y58578D01*
X411322Y59906D01*
X412843Y61011D01*
X414517Y61864D01*
X416304Y62445D01*
X417069Y62566D01*
X417069Y52831D01*
X407213Y52831D01*
G37*
%LPD*%
%LPC*%
G36*
X416304Y13755D02*
X416304Y13755D01*
X414517Y14336D01*
X412843Y15189D01*
X411322Y16294D01*
X409994Y17622D01*
X408889Y19143D01*
X408036Y20817D01*
X407455Y22604D01*
X407403Y22936D01*
X407366Y23056D01*
X407333Y23177D01*
X407324Y23191D01*
X407319Y23208D01*
X407251Y23312D01*
X407217Y23369D01*
X417069Y23369D01*
X417069Y13634D01*
X416304Y13755D01*
G37*
%LPD*%
%LPC*%
G36*
X391655Y38922D02*
X391655Y38922D01*
X391554Y38996D01*
X391539Y39001D01*
X391524Y39012D01*
X391254Y39100D01*
X391245Y39100D01*
X391236Y39103D01*
X390904Y39155D01*
X389117Y39736D01*
X387443Y40589D01*
X385922Y41694D01*
X384594Y43022D01*
X383489Y44543D01*
X382636Y46217D01*
X382055Y48004D01*
X381934Y48769D01*
X391669Y48769D01*
X391669Y38913D01*
X391655Y38922D01*
G37*
%LPD*%
%LPC*%
G36*
X421131Y52831D02*
X421131Y52831D01*
X421131Y62566D01*
X421896Y62445D01*
X423683Y61864D01*
X425357Y61011D01*
X426878Y59906D01*
X428206Y58578D01*
X429311Y57057D01*
X430164Y55383D01*
X430745Y53596D01*
X430866Y52831D01*
X421131Y52831D01*
G37*
%LPD*%
%LPC*%
G36*
X381934Y52831D02*
X381934Y52831D01*
X382055Y53596D01*
X382636Y55383D01*
X383489Y57057D01*
X384594Y58578D01*
X385922Y59906D01*
X387443Y61011D01*
X389117Y61864D01*
X390904Y62445D01*
X391669Y62566D01*
X391669Y52831D01*
X381934Y52831D01*
G37*
%LPD*%
%LPC*%
G36*
X421131Y23369D02*
X421131Y23369D01*
X430866Y23369D01*
X430745Y22604D01*
X430164Y20817D01*
X429311Y19143D01*
X428206Y17622D01*
X426878Y16294D01*
X425357Y15189D01*
X423683Y14336D01*
X421896Y13755D01*
X421131Y13634D01*
X421131Y23369D01*
G37*
%LPD*%
%LPC*%
G36*
X390904Y13755D02*
X390904Y13755D01*
X389117Y14336D01*
X387443Y15189D01*
X385922Y16294D01*
X384594Y17622D01*
X383489Y19143D01*
X382636Y20817D01*
X382055Y22604D01*
X381934Y23369D01*
X391669Y23369D01*
X391669Y13634D01*
X390904Y13755D01*
G37*
%LPD*%
%LPC*%
G36*
X484631Y256031D02*
X484631Y256031D01*
X484631Y264480D01*
X485098Y264406D01*
X486695Y263887D01*
X488192Y263125D01*
X489550Y262138D01*
X490738Y260950D01*
X491725Y259592D01*
X492487Y258095D01*
X493006Y256498D01*
X493080Y256031D01*
X484631Y256031D01*
G37*
%LPD*%
%LPC*%
G36*
X510031Y179831D02*
X510031Y179831D01*
X510031Y188280D01*
X510498Y188206D01*
X512095Y187687D01*
X513592Y186925D01*
X514950Y185938D01*
X516138Y184750D01*
X517125Y183392D01*
X517887Y181895D01*
X518406Y180298D01*
X518480Y179831D01*
X510031Y179831D01*
G37*
%LPD*%
%LPC*%
G36*
X472120Y256031D02*
X472120Y256031D01*
X472194Y256498D01*
X472713Y258095D01*
X473475Y259592D01*
X474462Y260950D01*
X475650Y262138D01*
X477008Y263125D01*
X478505Y263887D01*
X480102Y264406D01*
X480569Y264480D01*
X480569Y256031D01*
X472120Y256031D01*
G37*
%LPD*%
%LPC*%
G36*
X484631Y251969D02*
X484631Y251969D01*
X493080Y251969D01*
X493006Y251502D01*
X492487Y249905D01*
X491725Y248408D01*
X490738Y247050D01*
X489550Y245862D01*
X488192Y244875D01*
X486695Y244113D01*
X485098Y243594D01*
X484631Y243520D01*
X484631Y251969D01*
G37*
%LPD*%
%LPC*%
G36*
X497520Y179831D02*
X497520Y179831D01*
X497594Y180298D01*
X498113Y181895D01*
X498875Y183392D01*
X499862Y184750D01*
X501050Y185938D01*
X502408Y186925D01*
X503905Y187687D01*
X505502Y188206D01*
X505969Y188280D01*
X505969Y179831D01*
X497520Y179831D01*
G37*
%LPD*%
%LPC*%
G36*
X510031Y175769D02*
X510031Y175769D01*
X518480Y175769D01*
X518406Y175302D01*
X517887Y173705D01*
X517125Y172208D01*
X516138Y170850D01*
X514950Y169662D01*
X513592Y168675D01*
X512095Y167913D01*
X510498Y167394D01*
X510031Y167320D01*
X510031Y175769D01*
G37*
%LPD*%
%LPC*%
G36*
X480102Y243594D02*
X480102Y243594D01*
X478505Y244113D01*
X477008Y244875D01*
X475650Y245862D01*
X474462Y247050D01*
X473475Y248408D01*
X472713Y249905D01*
X472194Y251502D01*
X472120Y251969D01*
X480569Y251969D01*
X480569Y243520D01*
X480102Y243594D01*
G37*
%LPD*%
%LPC*%
G36*
X505502Y167394D02*
X505502Y167394D01*
X503905Y167913D01*
X502408Y168675D01*
X501050Y169662D01*
X499862Y170850D01*
X498875Y172208D01*
X498113Y173705D01*
X497594Y175302D01*
X497520Y175769D01*
X505969Y175769D01*
X505969Y167320D01*
X505502Y167394D01*
G37*
%LPD*%
%LPC*%
G36*
X482599Y253999D02*
X482599Y253999D01*
X482599Y254001D01*
X482601Y254001D01*
X482601Y253999D01*
X482599Y253999D01*
G37*
%LPD*%
%LPC*%
G36*
X51599Y368299D02*
X51599Y368299D01*
X51599Y368301D01*
X51601Y368301D01*
X51601Y368299D01*
X51599Y368299D01*
G37*
%LPD*%
%LPC*%
G36*
X419099Y50799D02*
X419099Y50799D01*
X419099Y50801D01*
X419101Y50801D01*
X419101Y50799D01*
X419099Y50799D01*
G37*
%LPD*%
%LPC*%
G36*
X393699Y25399D02*
X393699Y25399D01*
X393699Y25401D01*
X393701Y25401D01*
X393701Y25399D01*
X393699Y25399D01*
G37*
%LPD*%
%LPC*%
G36*
X393699Y50799D02*
X393699Y50799D01*
X393699Y50801D01*
X393701Y50801D01*
X393701Y50799D01*
X393699Y50799D01*
G37*
%LPD*%
%LPC*%
G36*
X507999Y177799D02*
X507999Y177799D01*
X507999Y177801D01*
X508001Y177801D01*
X508001Y177799D01*
X507999Y177799D01*
G37*
%LPD*%
%LPC*%
G36*
X419099Y25399D02*
X419099Y25399D01*
X419099Y25401D01*
X419101Y25401D01*
X419101Y25399D01*
X419099Y25399D01*
G37*
%LPD*%
D10*
X111600Y368300D03*
X51600Y368300D03*
X81600Y321300D03*
D11*
X609600Y431800D03*
X584200Y431800D03*
X558800Y431800D03*
X533400Y431800D03*
X508000Y431800D03*
X482600Y431800D03*
X457200Y431800D03*
X431800Y431800D03*
X406400Y431800D03*
X381000Y431800D03*
X355600Y431800D03*
X330200Y431800D03*
X304800Y431800D03*
X279400Y431800D03*
D12*
X660400Y254000D03*
X635000Y254000D03*
X609600Y254000D03*
X584200Y254000D03*
X558800Y254000D03*
X533400Y254000D03*
X508000Y254000D03*
X482600Y254000D03*
X457200Y254000D03*
X431800Y254000D03*
X406400Y254000D03*
X381000Y254000D03*
X355600Y254000D03*
X330200Y254000D03*
X330200Y177800D03*
X355600Y177800D03*
X381000Y177800D03*
X406400Y177800D03*
X431800Y177800D03*
X457200Y177800D03*
X482600Y177800D03*
X508000Y177800D03*
X533400Y177800D03*
X558800Y177800D03*
X584200Y177800D03*
X609600Y177800D03*
X635000Y177800D03*
X660400Y177800D03*
D11*
X609600Y457200D03*
X584200Y457200D03*
X558800Y457200D03*
X533400Y457200D03*
X508000Y457200D03*
X482600Y457200D03*
X457200Y457200D03*
X431800Y457200D03*
X406400Y457200D03*
X381000Y457200D03*
X355600Y457200D03*
X330200Y457200D03*
X304800Y457200D03*
X279400Y457200D03*
X482600Y25400D03*
X508000Y25400D03*
X533400Y25400D03*
X558800Y25400D03*
X584200Y25400D03*
X609600Y25400D03*
X482600Y50800D03*
X508000Y50800D03*
X533400Y50800D03*
X558800Y50800D03*
X584200Y50800D03*
X609600Y50800D03*
X266700Y25400D03*
X292100Y25400D03*
X317500Y25400D03*
X342900Y25400D03*
X368300Y25400D03*
X393700Y25400D03*
X419100Y25400D03*
X444500Y25400D03*
X266700Y50800D03*
X292100Y50800D03*
X317500Y50800D03*
X342900Y50800D03*
X368300Y50800D03*
X393700Y50800D03*
X419100Y50800D03*
X444500Y50800D03*
D13*
X444500Y63500D01*
X436880Y71120D01*
X132080Y71120D02*
X110490Y92710D01*
X110490Y367190D01*
X111600Y368300D01*
X132080Y71120D02*
X436880Y71120D01*
X444500Y50800D02*
X444500Y25400D01*
D14*
X431800Y165100D02*
X431800Y177800D01*
X431800Y165100D02*
X406400Y139700D01*
X304800Y139700D01*
X279400Y165100D01*
X279400Y431800D01*
X609600Y330200D02*
X609600Y254000D01*
X609600Y330200D02*
X584200Y355600D01*
X584200Y431800D01*
X673100Y152400D02*
X615950Y95250D01*
X673100Y152400D02*
X673100Y190500D01*
X609600Y254000D01*
X615950Y95250D02*
X139700Y95250D01*
D15*
X139700Y95250D03*
D14*
X635000Y254000D02*
X635000Y330200D01*
X609600Y355600D01*
X609600Y431800D01*
X679450Y146050D02*
X615950Y82550D01*
X679450Y146050D02*
X679450Y209550D01*
X615950Y82550D02*
X139700Y82550D01*
X635000Y254000D02*
X679450Y209550D01*
D15*
X139700Y82550D03*
D14*
X660400Y254000D02*
X685800Y228600D01*
X266700Y50800D02*
X266700Y25400D01*
D15*
X203200Y25400D03*
D14*
X266700Y25400D01*
X635000Y88900D02*
X685800Y139700D01*
X635000Y20320D02*
X622300Y7620D01*
X284480Y7620D01*
X266700Y25400D01*
X685800Y139700D02*
X685800Y228600D01*
X635000Y88900D02*
X635000Y20320D01*
X584200Y254000D02*
X584200Y330200D01*
X558800Y355600D01*
X558800Y431800D01*
X558800Y330200D02*
X558800Y254000D01*
X558800Y330200D02*
X533400Y355600D01*
X533400Y431800D01*
X533400Y330200D02*
X533400Y254000D01*
X533400Y330200D02*
X508000Y355600D01*
X508000Y431800D01*
X406400Y279400D02*
X406400Y254000D01*
X406400Y279400D02*
X482600Y355600D01*
X482600Y431800D01*
X381000Y279400D02*
X381000Y254000D01*
X381000Y279400D02*
X457200Y355600D01*
X457200Y431800D01*
X355600Y279400D02*
X355600Y254000D01*
X355600Y279400D02*
X431800Y355600D01*
X431800Y431800D01*
X330200Y279400D02*
X330200Y254000D01*
X406400Y355600D02*
X406400Y431800D01*
X406400Y355600D02*
X330200Y279400D01*
X330200Y177800D02*
X317500Y177800D01*
X304800Y190500D01*
X304800Y279400D01*
X381000Y355600D01*
X381000Y431800D01*
X355600Y177800D02*
X355600Y165100D01*
X349250Y158750D01*
X323850Y158750D01*
X298450Y184150D01*
X298450Y298450D01*
X355600Y355600D01*
X355600Y431800D01*
X381000Y177800D02*
X381000Y165100D01*
X368300Y152400D01*
X317500Y152400D01*
X292100Y177800D01*
X292100Y317500D01*
X330200Y355600D01*
X330200Y431800D01*
X406400Y177800D02*
X406400Y165100D01*
X387350Y146050D01*
X311150Y146050D01*
X285750Y171450D01*
X285750Y336550D01*
X304800Y355600D01*
X304800Y431800D01*
D15*
X355600Y114300D03*
X368300Y114300D03*
X381000Y114300D03*
X254000Y190500D03*
X254000Y177800D03*
X254000Y165100D03*
X203200Y114300D03*
X215900Y114300D03*
X228600Y114300D03*
X25400Y304800D03*
X38100Y304800D03*
X254000Y254000D03*
X254000Y266700D03*
X254000Y279400D03*
X647700Y406400D03*
X647700Y393700D03*
X647700Y381000D03*
M02*
