G04 EAGLE Gerber RS-274X export*
G75*
%MOMM*%
%FSLAX34Y34*%
%LPD*%
%INSoldermask Top*%
%IPPOS*%
%AMOC8*
5,1,8,0,0,1.08239X$1,22.5*%
G01*
%ADD10C,3.503200*%
%ADD11R,1.603200X1.803200*%
%ADD12R,3.203200X1.603200*%
%ADD13R,1.303200X1.203200*%
%ADD14R,1.727200X1.673200*%
%ADD15R,1.203200X1.303200*%
%ADD16C,4.521200*%
%ADD17R,0.753200X1.403200*%
%ADD18R,1.422400X2.438400*%
%ADD19R,3.803200X2.403200*%
%ADD20C,0.505344*%
%ADD21R,1.653200X0.603200*%
%ADD22C,1.053200*%
%ADD23R,1.700000X2.000000*%
%ADD24R,1.700000X2.700000*%
%ADD25R,1.803200X1.603200*%
%ADD26C,0.357806*%
%ADD27R,0.833200X1.033200*%
%ADD28R,1.727200X0.838200*%
%ADD29R,1.303200X1.403200*%
%ADD30C,2.082800*%
%ADD31R,1.403200X1.303200*%
%ADD32R,1.727200X0.965200*%
%ADD33R,1.003200X1.403200*%
%ADD34C,1.828800*%


D10*
X38100Y444500D03*
X38100Y38100D03*
X660400Y38100D03*
X660400Y444500D03*
D11*
X151100Y261620D03*
X179100Y261620D03*
D12*
X198250Y441960D03*
X246250Y441960D03*
D13*
X206130Y264160D03*
X223130Y264160D03*
D14*
X142330Y398780D03*
X187870Y398780D03*
D15*
X152400Y296300D03*
X152400Y313300D03*
X152400Y339480D03*
X152400Y356480D03*
D16*
X111600Y368300D03*
X51600Y368300D03*
X81600Y321300D03*
D17*
X192380Y164131D03*
X182880Y164131D03*
X173380Y164131D03*
X173380Y138129D03*
X192380Y138129D03*
D15*
X152400Y155820D03*
X152400Y138820D03*
X212090Y138820D03*
X212090Y155820D03*
D18*
X180086Y294132D03*
X203200Y294132D03*
X226314Y294132D03*
D19*
X203200Y356110D03*
D13*
X309000Y381000D03*
X326000Y381000D03*
X309000Y330200D03*
X326000Y330200D03*
X309000Y355600D03*
X326000Y355600D03*
X588400Y342900D03*
X605400Y342900D03*
D20*
X274120Y352110D02*
X274120Y359090D01*
X274120Y352110D02*
X267140Y352110D01*
X267140Y359090D01*
X274120Y359090D01*
X274120Y356910D02*
X267140Y356910D01*
X291660Y359090D02*
X291660Y352110D01*
X284680Y352110D01*
X284680Y359090D01*
X291660Y359090D01*
X291660Y356910D02*
X284680Y356910D01*
X274120Y333690D02*
X274120Y326710D01*
X267140Y326710D01*
X267140Y333690D01*
X274120Y333690D01*
X274120Y331510D02*
X267140Y331510D01*
X291660Y333690D02*
X291660Y326710D01*
X284680Y326710D01*
X284680Y333690D01*
X291660Y333690D01*
X291660Y331510D02*
X284680Y331510D01*
X274120Y377510D02*
X274120Y384490D01*
X274120Y377510D02*
X267140Y377510D01*
X267140Y384490D01*
X274120Y384490D01*
X274120Y382310D02*
X267140Y382310D01*
X291660Y384490D02*
X291660Y377510D01*
X284680Y377510D01*
X284680Y384490D01*
X291660Y384490D01*
X291660Y382310D02*
X284680Y382310D01*
X629720Y346390D02*
X629720Y339410D01*
X622740Y339410D01*
X622740Y346390D01*
X629720Y346390D01*
X629720Y344210D02*
X622740Y344210D01*
X647260Y346390D02*
X647260Y339410D01*
X640280Y339410D01*
X640280Y346390D01*
X647260Y346390D01*
X647260Y344210D02*
X640280Y344210D01*
D21*
X48840Y240030D03*
X48840Y246530D03*
X48840Y253030D03*
X48840Y233530D03*
X48840Y227030D03*
D22*
X43590Y259030D03*
X43590Y221030D03*
D23*
X21590Y276870D03*
X21590Y203190D03*
D24*
X21590Y240030D03*
D13*
X142630Y196850D03*
X159630Y196850D03*
D25*
X119380Y293400D03*
X119380Y265400D03*
D26*
X188257Y223847D02*
X188257Y214493D01*
X183703Y214493D01*
X183703Y223847D01*
X188257Y223847D01*
X188257Y217892D02*
X183703Y217892D01*
X183703Y221291D02*
X188257Y221291D01*
X207457Y223847D02*
X207457Y214493D01*
X202903Y214493D01*
X202903Y223847D01*
X207457Y223847D01*
X207457Y217892D02*
X202903Y217892D01*
X202903Y221291D02*
X207457Y221291D01*
X197857Y235893D02*
X197857Y245247D01*
X197857Y235893D02*
X193303Y235893D01*
X193303Y245247D01*
X197857Y245247D01*
X197857Y239292D02*
X193303Y239292D01*
X193303Y242691D02*
X197857Y242691D01*
D27*
X207080Y196850D03*
X184080Y196850D03*
D28*
X72670Y93980D03*
X18770Y119380D03*
X72670Y81280D03*
X72670Y106680D03*
X72670Y119380D03*
X18770Y106680D03*
X18770Y132080D03*
X18770Y144780D03*
X72670Y144780D03*
X18770Y170180D03*
X72670Y132080D03*
X72670Y157480D03*
X18770Y157480D03*
X72670Y170180D03*
X18770Y93980D03*
X18770Y81280D03*
D15*
X76200Y201050D03*
X76200Y218050D03*
X95250Y201050D03*
X95250Y218050D03*
X114300Y201050D03*
X114300Y218050D03*
X114300Y130420D03*
X114300Y113420D03*
D13*
X143900Y115570D03*
X160900Y115570D03*
X80400Y25400D03*
X97400Y25400D03*
X79130Y52070D03*
X96130Y52070D03*
D29*
X123050Y153350D03*
X123050Y176850D03*
X105550Y176850D03*
X105550Y153350D03*
D30*
X609600Y431800D03*
X584200Y431800D03*
X558800Y431800D03*
X533400Y431800D03*
X508000Y431800D03*
X482600Y431800D03*
X457200Y431800D03*
X431800Y431800D03*
X406400Y431800D03*
X381000Y431800D03*
X355600Y431800D03*
X330200Y431800D03*
X304800Y431800D03*
X279400Y431800D03*
D13*
X414900Y292100D03*
X397900Y292100D03*
X474100Y292100D03*
X491100Y292100D03*
D31*
X456250Y300850D03*
X432750Y300850D03*
X432750Y283350D03*
X456250Y283350D03*
D32*
X180340Y19050D03*
X124460Y19050D03*
X180340Y57150D03*
X124460Y57150D03*
D15*
X469900Y131200D03*
X469900Y148200D03*
X508000Y300600D03*
X508000Y283600D03*
X660400Y283600D03*
X660400Y300600D03*
D33*
X72280Y279400D03*
X90280Y279400D03*
D34*
X660400Y254000D03*
X635000Y254000D03*
X609600Y254000D03*
X584200Y254000D03*
X558800Y254000D03*
X533400Y254000D03*
X508000Y254000D03*
X482600Y254000D03*
X457200Y254000D03*
X431800Y254000D03*
X406400Y254000D03*
X381000Y254000D03*
X355600Y254000D03*
X330200Y254000D03*
X330200Y177800D03*
X355600Y177800D03*
X381000Y177800D03*
X406400Y177800D03*
X431800Y177800D03*
X457200Y177800D03*
X482600Y177800D03*
X508000Y177800D03*
X533400Y177800D03*
X558800Y177800D03*
X584200Y177800D03*
X609600Y177800D03*
X635000Y177800D03*
X660400Y177800D03*
D30*
X609600Y457200D03*
X584200Y457200D03*
X558800Y457200D03*
X533400Y457200D03*
X508000Y457200D03*
X482600Y457200D03*
X457200Y457200D03*
X431800Y457200D03*
X406400Y457200D03*
X381000Y457200D03*
X355600Y457200D03*
X330200Y457200D03*
X304800Y457200D03*
X279400Y457200D03*
X482600Y25400D03*
X508000Y25400D03*
X533400Y25400D03*
X558800Y25400D03*
X584200Y25400D03*
X609600Y25400D03*
X482600Y50800D03*
X508000Y50800D03*
X533400Y50800D03*
X558800Y50800D03*
X584200Y50800D03*
X609600Y50800D03*
X266700Y25400D03*
X292100Y25400D03*
X317500Y25400D03*
X342900Y25400D03*
X368300Y25400D03*
X393700Y25400D03*
X419100Y25400D03*
X444500Y25400D03*
X266700Y50800D03*
X292100Y50800D03*
X317500Y50800D03*
X342900Y50800D03*
X368300Y50800D03*
X393700Y50800D03*
X419100Y50800D03*
X444500Y50800D03*
M02*
