G04 EAGLE Gerber RS-274X export*
G75*
%MOMM*%
%FSLAX34Y34*%
%LPD*%
%INSolderpaste Top*%
%IPPOS*%
%AMOC8*
5,1,8,0,0,1.08239X$1,22.5*%
G01*
%ADD10R,1.400000X1.600000*%
%ADD11R,3.000000X1.400000*%
%ADD12R,1.100000X1.000000*%
%ADD13R,1.524000X1.470000*%
%ADD14R,1.000000X1.100000*%
%ADD15R,0.550000X1.200000*%
%ADD16R,1.219200X2.235200*%
%ADD17R,3.600000X2.200000*%
%ADD18C,0.300000*%
%ADD19R,1.450000X0.400000*%
%ADD20R,1.500000X1.800000*%
%ADD21R,0.700000X1.500000*%
%ADD22R,1.600000X1.400000*%
%ADD23C,0.152500*%
%ADD24R,0.630000X0.830000*%
%ADD25R,1.524000X0.635000*%
%ADD26R,1.100000X1.200000*%
%ADD27R,1.200000X1.100000*%
%ADD28R,1.524000X0.762000*%
%ADD29R,0.800000X1.200000*%


D10*
X151100Y261620D03*
X179100Y261620D03*
D11*
X198250Y441960D03*
X246250Y441960D03*
D12*
X206130Y264160D03*
X223130Y264160D03*
D13*
X142330Y398780D03*
X187870Y398780D03*
D14*
X152400Y296300D03*
X152400Y313300D03*
X152400Y339480D03*
X152400Y356480D03*
D15*
X192380Y164131D03*
X182880Y164131D03*
X173380Y164131D03*
X173380Y138129D03*
X192380Y138129D03*
D14*
X152400Y155820D03*
X152400Y138820D03*
X212090Y138820D03*
X212090Y155820D03*
D16*
X180086Y294132D03*
X203200Y294132D03*
X226314Y294132D03*
D17*
X203200Y356110D03*
D12*
X309000Y381000D03*
X326000Y381000D03*
X309000Y330200D03*
X326000Y330200D03*
X309000Y355600D03*
X326000Y355600D03*
X588400Y342900D03*
X605400Y342900D03*
D18*
X274130Y352100D02*
X274130Y359100D01*
X274130Y352100D02*
X267130Y352100D01*
X267130Y359100D01*
X274130Y359100D01*
X274130Y354950D02*
X267130Y354950D01*
X267130Y357800D02*
X274130Y357800D01*
X291670Y359100D02*
X291670Y352100D01*
X284670Y352100D01*
X284670Y359100D01*
X291670Y359100D01*
X291670Y354950D02*
X284670Y354950D01*
X284670Y357800D02*
X291670Y357800D01*
X274130Y333700D02*
X274130Y326700D01*
X267130Y326700D01*
X267130Y333700D01*
X274130Y333700D01*
X274130Y329550D02*
X267130Y329550D01*
X267130Y332400D02*
X274130Y332400D01*
X291670Y333700D02*
X291670Y326700D01*
X284670Y326700D01*
X284670Y333700D01*
X291670Y333700D01*
X291670Y329550D02*
X284670Y329550D01*
X284670Y332400D02*
X291670Y332400D01*
X274130Y377500D02*
X274130Y384500D01*
X274130Y377500D02*
X267130Y377500D01*
X267130Y384500D01*
X274130Y384500D01*
X274130Y380350D02*
X267130Y380350D01*
X267130Y383200D02*
X274130Y383200D01*
X291670Y384500D02*
X291670Y377500D01*
X284670Y377500D01*
X284670Y384500D01*
X291670Y384500D01*
X291670Y380350D02*
X284670Y380350D01*
X284670Y383200D02*
X291670Y383200D01*
X629730Y346400D02*
X629730Y339400D01*
X622730Y339400D01*
X622730Y346400D01*
X629730Y346400D01*
X629730Y342250D02*
X622730Y342250D01*
X622730Y345100D02*
X629730Y345100D01*
X647270Y346400D02*
X647270Y339400D01*
X640270Y339400D01*
X640270Y346400D01*
X647270Y346400D01*
X647270Y342250D02*
X640270Y342250D01*
X640270Y345100D02*
X647270Y345100D01*
D19*
X48840Y240030D03*
X48840Y246530D03*
X48840Y253030D03*
X48840Y233530D03*
X48840Y227030D03*
D20*
X21590Y276870D03*
D21*
X21590Y240030D03*
D20*
X21590Y203190D03*
D12*
X142630Y196850D03*
X159630Y196850D03*
D22*
X119380Y293400D03*
X119380Y265400D03*
D23*
X188268Y223858D02*
X188268Y214482D01*
X183692Y214482D01*
X183692Y223858D01*
X188268Y223858D01*
X188268Y215931D02*
X183692Y215931D01*
X183692Y217380D02*
X188268Y217380D01*
X188268Y218829D02*
X183692Y218829D01*
X183692Y220278D02*
X188268Y220278D01*
X188268Y221727D02*
X183692Y221727D01*
X183692Y223176D02*
X188268Y223176D01*
X207468Y223858D02*
X207468Y214482D01*
X202892Y214482D01*
X202892Y223858D01*
X207468Y223858D01*
X207468Y215931D02*
X202892Y215931D01*
X202892Y217380D02*
X207468Y217380D01*
X207468Y218829D02*
X202892Y218829D01*
X202892Y220278D02*
X207468Y220278D01*
X207468Y221727D02*
X202892Y221727D01*
X202892Y223176D02*
X207468Y223176D01*
X197868Y235882D02*
X197868Y245258D01*
X197868Y235882D02*
X193292Y235882D01*
X193292Y245258D01*
X197868Y245258D01*
X197868Y237331D02*
X193292Y237331D01*
X193292Y238780D02*
X197868Y238780D01*
X197868Y240229D02*
X193292Y240229D01*
X193292Y241678D02*
X197868Y241678D01*
X197868Y243127D02*
X193292Y243127D01*
X193292Y244576D02*
X197868Y244576D01*
D24*
X207080Y196850D03*
X184080Y196850D03*
D25*
X72670Y93980D03*
X18770Y119380D03*
X72670Y81280D03*
X72670Y106680D03*
X72670Y119380D03*
X18770Y106680D03*
X18770Y132080D03*
X18770Y144780D03*
X72670Y144780D03*
X18770Y170180D03*
X72670Y132080D03*
X72670Y157480D03*
X18770Y157480D03*
X72670Y170180D03*
X18770Y93980D03*
X18770Y81280D03*
D14*
X76200Y201050D03*
X76200Y218050D03*
X95250Y201050D03*
X95250Y218050D03*
X114300Y201050D03*
X114300Y218050D03*
X114300Y130420D03*
X114300Y113420D03*
D12*
X143900Y115570D03*
X160900Y115570D03*
X80400Y25400D03*
X97400Y25400D03*
X79130Y52070D03*
X96130Y52070D03*
D26*
X123050Y153350D03*
X123050Y176850D03*
X105550Y176850D03*
X105550Y153350D03*
D12*
X414900Y292100D03*
X397900Y292100D03*
X474100Y292100D03*
X491100Y292100D03*
D27*
X456250Y300850D03*
X432750Y300850D03*
X432750Y283350D03*
X456250Y283350D03*
D28*
X180340Y19050D03*
X124460Y19050D03*
X180340Y57150D03*
X124460Y57150D03*
D14*
X469900Y131200D03*
X469900Y148200D03*
X508000Y300600D03*
X508000Y283600D03*
X660400Y283600D03*
X660400Y300600D03*
D29*
X72280Y279400D03*
X90280Y279400D03*
M02*
